<svg xmlns="http://www.w3.org/2000/svg" fill="none" viewBox="-0.44 -0.44 14 14" id="Office-File-Text--Streamline-Ultimate.svg" height="14" width="14"><desc>Office File Text Streamline Icon: https://streamlinehq.com</desc><path stroke="#ffffff" stroke-linecap="round" stroke-linejoin="round" d="M12.300000000000002 11.888906666666669c0 0.2175186666666667 -0.08637333333333334 0.42607200000000006 -0.2401506666666667 0.5798493333333334s-0.3623853333333334 0.2401506666666667 -0.5798493333333334 0.2401506666666667H1.6400000000000001c-0.21747493333333337 0 -0.4260501333333334 -0.08637333333333334 -0.5798274666666667 -0.2401506666666667 -0.15377733333333335 -0.15377733333333335 -0.24017253333333338 -0.3623306666666667 -0.24017253333333338 -0.5798493333333334V1.2289340000000002c0 -0.10768786666666669 0.02121066666666667 -0.21431520000000004 0.06241840000000001 -0.31380306666666674 0.04120773333333334 -0.09948786666666669 0.10160893333333335 -0.1898846666666667 0.17775413333333337 -0.26602440000000005C1.2139498666666668 0.4953248266666668 1.422525066666667 0.40893236000000005 1.6400000000000001 0.40893236000000005h8.200000000000001c0.2139106666666667 0.00016782666666666668 0.41934800000000005 0.08393465333333334 0.5723600000000001 0.23342830666666672l1.6400000000000001 1.5754933333333336c0.07839200000000002 0.07638573333333334 0.14065733333333333 0.16768453333333336 0.18318800000000002 0.26851720000000007 0.04253066666666667 0.10083813333333336 0.06445200000000001 0.20916560000000003 0.06445200000000001 0.3186028000000001V11.888906666666669Z" stroke-width="0.88"></path><path stroke="#ffffff" stroke-linecap="round" stroke-linejoin="round" d="M4.920000000000001 6.148906666666667V2.8689340000000003" stroke-width="0.88"></path><path stroke="#ffffff" stroke-linecap="round" stroke-linejoin="round" d="M3.2800000000000002 3.6889340000000006v-0.8200000000000001h3.2800000000000002v0.8200000000000001" stroke-width="0.88"></path><path stroke="#ffffff" stroke-linecap="round" stroke-linejoin="round" d="M8.610000000000001 5.328934H9.840000000000002" stroke-width="0.88"></path><path stroke="#ffffff" stroke-linecap="round" stroke-linejoin="round" d="M8.610000000000001 2.8689340000000003H9.840000000000002" stroke-width="0.88"></path><path stroke="#ffffff" stroke-linecap="round" stroke-linejoin="round" d="M3.2800000000000002 7.7889066666666675h6.5600000000000005" stroke-width="0.88"></path><path stroke="#ffffff" stroke-linecap="round" stroke-linejoin="round" d="M3.2800000000000002 10.248906666666668h6.5600000000000005" stroke-width="0.88"></path><path stroke="#ffffff" stroke-linecap="round" stroke-linejoin="round" d="M4.1000000000000005 6.148906666666667h1.6400000000000001" stroke-width="0.88"></path></svg>
