<svg xmlns="http://www.w3.org/2000/svg" fill="none" viewBox="-0.44 -0.44 14 14" id="Content-Paper-Edit--Streamline-Ultimate.svg" height="14" width="14"><desc>Content Paper Edit Streamline Icon: https://streamlinehq.com</desc><path stroke="#ffffff" stroke-linecap="round" stroke-linejoin="round" d="M4.507813333333334 11.070000000000002h-3.2800000000000002c-0.21747493333333337 0 -0.42604466666666674 -0.08637333333333334 -0.5798274666666667 -0.2401506666666667 -0.15377897333333337 -0.15377733333333335 -0.24017144000000004 -0.3623853333333334 -0.24017144000000004 -0.5798493333333334V1.2300000000000002c0 -0.21747493333333337 0.08639246666666668 -0.4260501333333334 0.24017144000000004 -0.5798274666666667C0.8017686666666668 0.49639246666666675 1.0103384000000002 0.41000000000000003 1.2278133333333334 0.41000000000000003h8.200000000000001c0.21746400000000002 0 0.42607200000000006 0.08639246666666668 0.5798493333333334 0.24017253333333338 0.15377733333333335 0.15377733333333335 0.2401506666666667 0.3623525333333334 0.2401506666666667 0.5798274666666667V4.920000000000001m-5.740000000000001 -2.0500000000000003h3.2800000000000002m-4.920000000000001 2.4600000000000004h4.920000000000001m-4.920000000000001 2.4600000000000004h4.1000000000000005m5.4016133333333345 0.33893333333333336L8.200000000000001 12.300000000000002l-2.0500000000000003 0.41000000000000003 0.41000000000000003 -2.0500000000000003 4.171613333333334 -4.171066666666667c0.10731066666666668 -0.10747466666666668 0.2347386666666667 -0.1927546666666667 0.3750133333333334 -0.25097466666666673 0.1402746666666667 -0.05816533333333334 0.2906626666666667 -0.08812266666666668 0.44252666666666673 -0.08812266666666668 0.15186400000000003 0 0.302252 0.02995733333333334 0.44252666666666673 0.08812266666666668 0.1402746666666667 0.05822000000000001 0.2677026666666667 0.14350000000000002 0.3750133333333334 0.25097466666666673l0.004920000000000001 0.004373333333333334c0.21658933333333336 0.2171906666666667 0.338004 0.5115160000000001 0.33756666666666674 0.8182506666666667 -0.00038266666666666673 0.3067346666666667 -0.12261733333333336 0.600732 -0.3397533333333334 0.8173760000000002Z" stroke-width="0.88"></path></svg>
