<svg xmlns="http://www.w3.org/2000/svg" fill="none" viewBox="0 0 14 14" id="Help--Streamline-Rounded-Material" height="14" width="14"><desc>Help Streamline Icon: https://streamlinehq.com</desc><path fill="#000000" d="M7.058770833333334 10.397916666666667c0.15525416666666667 0 0.2863583333333333 -0.053608333333333334 0.3933125 -0.1608541666666667s0.16041666666666668 -0.23849583333333335 0.16041666666666668 -0.39375000000000004c0 -0.15525416666666667 -0.053608333333333334 -0.2863583333333333 -0.1608541666666667 -0.3933125s-0.23849583333333335 -0.16041666666666668 -0.39375000000000004 -0.16041666666666668c-0.15525416666666667 0 -0.2863583333333333 0.053608333333333334 -0.3933125 0.1608541666666667s-0.16041666666666668 0.23849583333333335 -0.16041666666666668 0.39375000000000004c0 0.15525416666666667 0.053608333333333334 0.2863583333333333 0.1608541666666667 0.3933125s0.23849583333333335 0.16041666666666668 0.39375000000000004 0.16041666666666668Zm-0.05483333333333334 2.435416666666667c-0.8044166666666667 0 -1.5603291666666668 -0.153125 -2.2677083333333337 -0.45937500000000003 -0.7074958333333333 -0.30625 -1.3261500000000002 -0.7242958333333334 -1.8560208333333335 -1.2541666666666667 -0.5298620833333334 -0.5298708333333334 -0.9479166666666667 -1.148875 -1.2541666666666667 -1.8570416666666667C1.319791666666667 8.554583333333333 1.1666666666666667 7.797912500000001 1.1666666666666667 6.992708333333334s0.153125 -1.5618750000000001 0.45937500000000003 -2.2700416666666667c0.30625 -0.7081666666666667 0.7243045833333334 -1.32475 1.2541666666666667 -1.84975 0.5298708333333334 -0.525 1.148875 -0.940625 1.8570416666666667 -1.2468750000000002C5.4454166666666675 1.319791666666667 6.2020875 1.1666666666666667 7.007291666666667 1.1666666666666667s1.5618750000000001 0.153125 2.2700416666666667 0.45937500000000003c0.7081666666666667 0.30625 1.32475 0.721875 1.84975 1.2468750000000002 0.525 0.525 0.940625 1.1423708333333333 1.2468750000000002 1.8520833333333333C12.680208333333335 5.4347125 12.833333333333334 6.1917333333333335 12.833333333333334 6.9960625c0 0.8044166666666667 -0.153125 1.5603291666666668 -0.45937500000000003 2.2677083333333337 -0.30625 0.7074958333333333 -0.721875 1.3252750000000002 -1.2468750000000002 1.8533958333333334 -0.525 0.5280041666666667 -1.1423708333333333 0.9460791666666667 -1.8520833333333333 1.2541666666666667C8.5652875 12.679333333333334 7.808266666666667 12.833333333333334 7.003937500000001 12.833333333333334Zm0.0033541666666666668 -0.875c1.375704166666667 0 2.544791666666667 -0.4836708333333334 3.507291666666667 -1.4510416666666666 0.9625 -0.9673708333333334 1.44375 -2.138879166666667 1.44375 -3.514583333333334s-0.4803166666666667 -2.544791666666667 -1.4409791666666667 -3.507291666666667C9.556691666666667 2.522916666666667 8.38425 2.041666666666667 7 2.041666666666667c-1.3708333333333336 0 -2.5399208333333334 0.4803254166666667 -3.507291666666667 1.4409791666666667C2.52534625 4.443308333333333 2.041666666666667 5.615750000000001 2.041666666666667 7c0 1.3708333333333336 0.4836795833333334 2.5399208333333334 1.4510416666666666 3.507291666666667C4.4600791666666675 11.4746625 5.6315875 11.958333333333334 7.007291666666667 11.958333333333334Zm0.03310416666666667 -7.583333333333334c0.2939125 0 0.5526500000000001 0.08992083333333334 0.7762708333333335 0.2697916666666667 0.22362083333333335 0.17987083333333334 0.33541666666666664 0.40929583333333336 0.33541666666666664 0.6883333333333334 0 0.2557041666666667 -0.07606666666666667 0.47798333333333337 -0.22822916666666668 0.6668958333333335 -0.15216250000000003 0.18891250000000004 -0.32398333333333335 0.36668333333333336 -0.5155208333333334 0.5333125000000001 -0.22362083333333335 0.1847125 -0.41804583333333334 0.39074583333333335 -0.5833333333333334 0.6180416666666668 -0.1652875 0.2274125 -0.24791666666666667 0.4832041666666667 -0.24791666666666667 0.767375 0 0.10695416666666668 0.04083333333333334 0.19200416666666667 0.1225 0.25520833333333337 0.08166666666666668 0.06320416666666667 0.1769541666666667 0.09479166666666668 0.28583333333333333 0.09479166666666668 0.11666666666666668 0 0.21329583333333332 -0.03887916666666667 0.28991666666666666 -0.11666666666666668 0.07650416666666666 -0.07778750000000001 0.12570833333333334 -0.17500000000000002 0.14758333333333334 -0.2916666666666667 0.02916666666666667 -0.20416666666666666 0.10695416666666668 -0.38887916666666666 0.23333333333333336 -0.5541666666666667s0.27335000000000004 -0.31491250000000004 0.4408541666666667 -0.448875c0.24082916666666668 -0.19658333333333336 0.4390166666666667 -0.42612500000000003 0.5945625 -0.6886250000000002 0.15554583333333336 -0.2625 0.23333333333333336 -0.5474 0.23333333333333336 -0.8547291666666667 0 -0.48991250000000003 -0.18229166666666669 -0.8976916666666667 -0.546875 -1.2233958333333332 -0.36458333333333337 -0.3257041666666667 -0.7969791666666667 -0.4885416666666667 -1.2971875 -0.4885416666666667 -0.345625 0 -0.6788541666666668 0.07291666666666667 -0.9996875000000002 0.21875s-0.5833333333333334 0.35971250000000005 -0.7875000000000001 0.6416666666666667c-0.06804583333333333 0.09721250000000001 -0.0996625 0.20174583333333335 -0.09479166666666668 0.31354166666666666 0.004870833333333334 0.11179583333333333 0.050895833333333335 0.20174583333333335 0.13810416666666667 0.2697916666666667 0.11092083333333334 0.07778750000000001 0.22589583333333335 0.10208333333333333 0.3448958333333334 0.07291666666666667 0.1189125 -0.02916666666666667 0.2179625 -0.09721250000000001 0.29720833333333335 -0.20416666666666666 0.12395833333333334 -0.1740375 0.27892083333333334 -0.30747500000000005 0.4649166666666667 -0.4003125 0.18587916666666668 -0.09283750000000002 0.38465 -0.13927083333333334 0.5963125000000001 -0.13927083333333334Z" stroke-width="0.2917"></path></svg>