<svg xmlns="http://www.w3.org/2000/svg" fill="none" viewBox="0 0 14 14" id="Info--Streamline-Rounded-Material" height="14" width="14"><desc>Info Streamline Icon: https://streamlinehq.com</desc><path fill="#000000" d="M7.046375 9.916666666666668c0.12462916666666668 0 0.2282875 -0.041941666666666676 0.31091666666666673 -0.12585416666666668 0.08262916666666667 -0.08379583333333333 0.12395833333333334 -0.1876875 0.12395833333333334 -0.31164583333333334v-2.625c0 -0.12395833333333334 -0.04220416666666667 -0.2278791666666667 -0.12658333333333335 -0.3117916666666667 -0.08429166666666667 -0.08379583333333333 -0.18879583333333333 -0.12570833333333334 -0.31354166666666666 -0.12570833333333334 -0.12462916666666668 0 -0.2282875 0.0419125 -0.31091666666666673 0.12570833333333334 -0.08262916666666667 0.08391250000000001 -0.12395833333333334 0.18783333333333335 -0.12395833333333334 0.3117916666666667v2.625c0 0.12395833333333334 0.04220416666666667 0.22785000000000002 0.12658333333333335 0.31164583333333334 0.08429166666666667 0.08391250000000001 0.18879583333333333 0.12585416666666668 0.31354166666666666 0.12585416666666668Zm-0.04666666666666667 -4.579166666666667c0.13629583333333334 0 0.2506291666666667 -0.0447125 0.343 -0.13416666666666668 0.09237083333333333 -0.08945416666666667 0.13854166666666667 -0.2002875 0.13854166666666667 -0.3325 0 -0.14049583333333335 -0.04608333333333334 -0.2582125 -0.13825 -0.3532083333333334 -0.09216666666666667 -0.09508333333333334 -0.2064125 -0.142625 -0.3427083333333334 -0.142625 -0.13629583333333334 0 -0.2506291666666667 0.04754166666666667 -0.343 0.142625 -0.09237083333333333 0.09499583333333333 -0.13854166666666667 0.2127125 -0.13854166666666667 0.3532083333333334 0 0.1322125 0.04608333333333334 0.24304583333333335 0.13825 0.3325 0.09216666666666667 0.08945416666666667 0.2064125 0.13416666666666668 0.3427083333333334 0.13416666666666668Zm0.0042291666666666675 7.495833333333334c-0.8044166666666667 0 -1.5603291666666668 -0.153125 -2.2677083333333337 -0.45937500000000003 -0.7074958333333333 -0.30625 -1.3261500000000002 -0.7242958333333334 -1.8560208333333335 -1.2541666666666667 -0.5298620833333334 -0.5298708333333334 -0.9479166666666667 -1.148875 -1.2541666666666667 -1.8570416666666667C1.319791666666667 8.554583333333333 1.1666666666666667 7.797912500000001 1.1666666666666667 6.992708333333334s0.153125 -1.5618750000000001 0.45937500000000003 -2.2700416666666667c0.30625 -0.7081666666666667 0.7243045833333334 -1.32475 1.2541666666666667 -1.84975 0.5298708333333334 -0.525 1.148875 -0.940625 1.8570416666666667 -1.2468750000000002C5.4454166666666675 1.319791666666667 6.2020875 1.1666666666666667 7.007291666666667 1.1666666666666667s1.5618750000000001 0.153125 2.2700416666666667 0.45937500000000003c0.7081666666666667 0.30625 1.32475 0.721875 1.84975 1.2468750000000002 0.525 0.525 0.940625 1.1423708333333333 1.2468750000000002 1.8520833333333333C12.680208333333335 5.4347125 12.833333333333334 6.1917333333333335 12.833333333333334 6.9960625c0 0.8044166666666667 -0.153125 1.5603291666666668 -0.45937500000000003 2.2677083333333337 -0.30625 0.7074958333333333 -0.721875 1.3252750000000002 -1.2468750000000002 1.8533958333333334 -0.525 0.5280041666666667 -1.1423708333333333 0.9460791666666667 -1.8520833333333333 1.2541666666666667C8.5652875 12.679333333333334 7.808266666666667 12.833333333333334 7.003937500000001 12.833333333333334Zm0.0033541666666666668 -0.875c1.375704166666667 0 2.544791666666667 -0.4836708333333334 3.507291666666667 -1.4510416666666666 0.9625 -0.9673708333333334 1.44375 -2.138879166666667 1.44375 -3.514583333333334s-0.4803166666666667 -2.544791666666667 -1.4409791666666667 -3.507291666666667C9.556691666666667 2.522916666666667 8.38425 2.041666666666667 7 2.041666666666667c-1.3708333333333336 0 -2.5399208333333334 0.4803254166666667 -3.507291666666667 1.4409791666666667C2.52534625 4.443308333333333 2.041666666666667 5.615750000000001 2.041666666666667 7c0 1.3708333333333336 0.4836795833333334 2.5399208333333334 1.4510416666666666 3.507291666666667C4.4600791666666675 11.4746625 5.6315875 11.958333333333334 7.007291666666667 11.958333333333334Z" stroke-width="0.2917"></path></svg>