<svg xmlns="http://www.w3.org/2000/svg" fill="none" viewBox="-0.44 -0.44 14 14" id="Information-Circle--Streamline-Ultimate.svg" height="14" width="14"><desc>Information Circle Streamline Icon: https://streamlinehq.com</desc><path stroke="#ffffff" stroke-linecap="round" stroke-linejoin="round" d="M7.790000000000001 9.020000000000001h-0.41000000000000003c-0.21746400000000002 0 -0.42607200000000006 -0.08637333333333334 -0.5798493333333334 -0.2401506666666667S6.5600000000000005 8.417464 6.5600000000000005 8.200000000000001v-2.0500000000000003c0 -0.10873200000000001 -0.04318666666666667 -0.21303600000000003 -0.12010266666666669 -0.2898973333333334 -0.07686133333333335 -0.07691600000000001 -0.18116533333333334 -0.12010266666666669 -0.2898973333333334 -0.12010266666666669h-0.41000000000000003" stroke-width="0.88"></path><path stroke="#ffffff" d="M6.355000000000001 4.1000000000000005c-0.11321466666666669 0 -0.20500000000000002 -0.09177986666666668 -0.20500000000000002 -0.20500000000000002s0.09178533333333334 -0.20500000000000002 0.20500000000000002 -0.20500000000000002" stroke-width="0.88"></path><path stroke="#ffffff" d="M6.355000000000001 4.1000000000000005c0.11321466666666669 0 0.20500000000000002 -0.09177986666666668 0.20500000000000002 -0.20500000000000002s-0.09178533333333334 -0.20500000000000002 -0.20500000000000002 -0.20500000000000002" stroke-width="0.88"></path><path stroke="#ffffff" stroke-linecap="round" stroke-linejoin="round" d="M6.5600000000000005 12.710000000000003c3.3965493333333336 0 6.150000000000001 -2.753450666666667 6.150000000000001 -6.150000000000001S9.956549333333335 0.41000000000000003 6.5600000000000005 0.41000000000000003 0.41000000000000003 3.1634506666666673 0.41000000000000003 6.5600000000000005 3.1634506666666673 12.710000000000003 6.5600000000000005 12.710000000000003Z" stroke-width="0.88"></path></svg>
