<svg xmlns="http://www.w3.org/2000/svg" fill="none" viewBox="-0.44 -0.44 14 14" id="Information-Circle--Streamline-Plump.svg" height="14" width="14"><desc>Information Circle Streamline Icon: https://streamlinehq.com</desc><g id="information-circle--information-frame-info-more-help-point-circle"><path id="Ellipse 18" stroke="#ffffff" stroke-linecap="round" stroke-linejoin="round" d="M6.5600000000000005 0.8200000000000001c3.1701200000000007 0 5.740000000000001 2.56988 5.740000000000001 5.740000000000001s-2.56988 5.740000000000001 -5.740000000000001 5.740000000000001S0.8200000000000001 9.730120000000001 0.8200000000000001 6.5600000000000005 3.3898800000000002 0.8200000000000001 6.5600000000000005 0.8200000000000001Z" stroke-width="0.88"></path><path id="Union" stroke="#ffffff" stroke-linecap="round" stroke-linejoin="round" d="M6.817944666666667 5.473636666666668c0.31110800000000005 0.018067333333333338 0.5101220000000001 0.2598306666666667 0.5293920000000001 0.5708566666666667C7.364720666666668 6.324933333333334 7.380000000000001 6.750540666666668 7.380000000000001 7.380000000000001v1.3744293333333337c0.3471060000000001 0.007161333333333335 0.606062 0.018450000000000005 0.7960013333333334 0.030066666666666672 0.2989993333333334 0.018286000000000004 0.5389860000000001 0.20229400000000003 0.5610713333333335 0.5010473333333334 0.0059313333333333345 0.08038733333333334 0.009594000000000002 0.1735666666666667 0.009594000000000002 0.2811233333333334 0 0.10755666666666669 -0.0036626666666666674 0.20073600000000005 -0.009594000000000002 0.2811233333333334 -0.022085333333333335 0.29875333333333337 -0.262072 0.4827613333333334 -0.5610713333333335 0.5010473333333334C7.859071333333334 10.368216666666667 7.350015333333334 10.386666666666668 6.5600000000000005 10.386666666666668c-0.7900153333333334 0 -1.2990713333333335 -0.018450000000000005 -1.6160013333333336 -0.03782933333333334 -0.2989993333333334 -0.018286000000000004 -0.5389860000000001 -0.20229400000000003 -0.5610713333333335 -0.5010473333333334C4.376996000000001 9.76740266666667 4.373333333333334 9.674223333333336 4.373333333333334 9.566666666666668c0 -0.10755666666666669 0.0036626666666666674 -0.20073600000000005 0.009594000000000002 -0.2811233333333334 0.022085333333333335 -0.29875333333333337 0.262072 -0.4827613333333334 0.5610713333333335 -0.5010473333333334 0.18993933333333335 -0.01161666666666667 0.4488953333333334 -0.022905333333333337 0.7960013333333334 -0.030066666666666672V7.380000000000001c0 -0.09613133333333335 0.00035533333333333337 -0.18753400000000003 0.0010113333333333335 -0.27437200000000006 -0.043569333333333335 0.0006833333333333334 -0.08940733333333335 0.001038666666666667 -0.13767800000000002 0.001038666666666667 -0.1600366666666667 0 -0.2936966666666667 -0.003963333333333334 -0.40488866666666673 -0.010113333333333334 -0.3243373333333334 -0.01801266666666667 -0.5409813333333334 -0.2572066666666667 -0.5490993333333335 -0.5819540000000002C4.647650666666667 6.4470040000000015 4.646666666666667 6.371290666666668 4.646666666666667 6.286666666666668s0.000984 -0.16033733333333336 0.002678666666666667 -0.2279326666666667c0.008118000000000002 -0.3247473333333334 0.22476200000000005 -0.5639413333333334 0.5490993333333335 -0.5819540000000002 0.11119200000000001 -0.006150000000000001 0.24485200000000004 -0.010113333333333334 0.40488866666666673 -0.010113333333333334H6.5600000000000005c0.09738866666666668 0 0.18296933333333334 0.002624 0.2579446666666667 0.0069700000000000005Z" stroke-width="0.88"></path><path id="Ellipse 67" stroke="#ffffff" stroke-linecap="round" stroke-linejoin="round" d="M5.603333333333334 3.416666666666667a0.9566666666666668 0.9566666666666668 0 1 0 1.9133333333333336 0 0.9566666666666668 0.9566666666666668 0 1 0 -1.9133333333333336 0" stroke-width="0.88"></path></g></svg>