<svg xmlns="http://www.w3.org/2000/svg" fill="none" viewBox="-0.44 -0.44 14 14" id="Attachment--Streamline-Ultimate.svg" height="14" width="14"><desc>Attachment Streamline Icon: https://streamlinehq.com</desc><path stroke="#ffffff" stroke-linecap="round" stroke-linejoin="round" d="M12.710000000000003 5.412016400000001 6.709240000000001 11.413306666666669c-0.6920253333333335 0.6920253333333335 -1.6305973333333337 1.080814666666667 -2.6092509333333336 1.080814666666667 -0.9786536000000001 0 -1.9172256000000003 -0.38878933333333343 -2.6092400000000002 -1.080814666666667C0.7987346666666668 10.721336000000003 0.40996665333333343 9.782764 0.40996665333333343 8.804066666666667c0 -0.9786426666666668 0.38876801333333344 -1.917214666666667 1.0807824133333335 -2.6092400000000002L6.419506666666668 1.2666430666666668c0.2269213333333334 -0.2349518666666667 0.4983413333333334 -0.4223601333333334 0.7985160000000002 -0.5512860000000002 0.30012000000000005 -0.1289258666666667 0.6229266666666667 -0.19678961333333336 0.9495600000000002 -0.19962790666666672 0.3266333333333334 -0.0028382933333333336 0.6505333333333334 0.05940244000000001 0.9528946666666669 0.1830967066666667 0.3023066666666667 0.12368880000000002 0.576952 0.30635200000000007 0.8079733333333334 0.5373296000000001 0.23096666666666668 0.23097213333333336 0.4136080000000001 0.5056393333333334 0.5373186666666667 0.8079624000000002 0.12365600000000003 0.3023230666666667 0.18592133333333336 0.6262558666666668 0.18307866666666667 0.9528946666666669 -0.002842666666666667 0.32663880000000006 -0.07068400000000001 0.64944 -0.19964266666666672 0.9495654666666667 -0.12890400000000002 0.30013093333333335 -0.3163013333333334 0.5715782666666668 -0.5512586666666667 0.7985050666666668L4.9697357333333345 9.676c-0.23194520000000005 0.22413333333333335 -0.5426268000000001 0.3481173333333334 -0.8651273333333334 0.3453840000000001 -0.322506 -0.0027333333333333337 -0.6310228000000001 -0.1320746666666667 -0.8591140000000002 -0.3600893333333334 -0.22808573333333337 -0.22801466666666673 -0.35749266666666674 -0.5364986666666668 -0.36034626666666675 -0.8589773333333334 -0.0028536000000000004 -0.32253333333333334 0.12107573333333335 -0.6332040000000001 0.3450942666666667 -0.8652640000000001L8.159 3.006683066666667" stroke-width="0.88"></path></svg>
