<svg viewBox="-0.5 -0.5 16 16" fill="none" xmlns="http://www.w3.org/2000/svg" id="Link--Streamline-Unicons.svg" height="16" width="16"><desc>Link Streamline Icon: https://streamlinehq.com</desc><path d="m5.9814375 11.652750000000001 -1.3096875 1.2726875000000002c-0.3434375 0.3434375 -0.80925 0.5363125 -1.2949374999999999 0.5363125s-0.9514374999999999 -0.192875 -1.294875 -0.5363125c-0.3434375 -0.34349999999999997 -0.5363749999999999 -0.8091875 -0.5363749999999999 -1.294875 0 -0.48575 0.19293749999999998 -0.9515625 0.5363749999999999 -1.2949374999999999l3.359375 -3.3668125c0.32968749999999997 -0.3308125 0.7739375 -0.5221875 1.240875 -0.5345624999999999 0.466875 -0.0124375 0.9206875000000001 0.155125 1.2675 0.468l0.0888125 0.07400000000000001c0.1403125 0.1373125 0.3295 0.2133125 0.5258125 0.21125000000000002 0.196375 -0.0020625 0.38387499999999997 -0.0820625 0.52125 -0.222375 0.137375 -0.140375 0.21337499999999998 -0.3295 0.21131250000000001 -0.5258125 -0.0020625 -0.196375 -0.0820625 -0.38387499999999997 -0.2224375 -0.52125 -0.041749999999999995 -0.054000000000000006 -0.0861875 -0.1058125 -0.13318750000000001 -0.15537499999999999 -0.631625 -0.5495625 -1.4485000000000001 -0.8384999999999999 -2.28525 -0.8082499999999999s-1.6306875 0.377375 -2.2210625 0.9710625l-3.4037499999999996 3.3668125C0.4528125 9.9218125 0.14 10.7504375 0.1580625 11.605125000000001c0.018125000000000002 0.8547499999999999 0.36568749999999994 1.6694375 0.9701875 2.273875 0.6045625 0.6045625 1.4191875 0.9521250000000001 2.2739375 0.9702500000000001 0.8546874999999999 0.018125000000000002 1.6833125 -0.29475 2.312875 -0.8730625000000001l1.280125 -1.2505c0.126375 -0.1379375 0.19587500000000002 -0.3185625 0.19443749999999999 -0.505625 -0.0013750000000000001 -0.18706250000000002 -0.073625 -0.366625 -0.20206249999999998 -0.5025625 -0.12843749999999998 -0.13599999999999998 -0.30362500000000003 -0.21825 -0.4903125 -0.2303125 -0.1866875 -0.0119375 -0.37093750000000003 0.0471875 -0.5158125 0.1655625ZM13.891562500000001 1.1158125C13.2690625 0.4971875 12.4271875 0.15 11.549562499999999 0.15s-1.7195 0.3471875 -2.3419375000000002 0.9658125L7.927499999999999 2.3663125c-0.126375 0.137875 -0.19587500000000002 0.3185625 -0.19443749999999999 0.5055624999999999 0.0013750000000000001 0.18706250000000002 0.073625 0.366625 0.20206249999999998 0.502625 0.12843749999999998 0.1359375 0.3036875 0.2181875 0.490375 0.23025 0.18662499999999999 0.011999999999999999 0.37093750000000003 -0.047125 0.51575 -0.16549999999999998l1.280125 -1.27275c0.343375 -0.3434375 0.8091875 -0.5363749999999999 1.2949374999999999 -0.5363749999999999 0.4856875 0 0.9515 0.19293749999999998 1.294875 0.5363749999999999 0.3434375 0.3434375 0.5364375 0.80925 0.5364375 1.2949374999999999 0 0.4856875 -0.193 0.9515 -0.5364375 1.2949374999999999l-3.359375 3.3668125c-0.32968749999999997 0.33075 -0.774 0.5221250000000001 -1.240875 0.5345 -0.4669375 0.0124375 -0.9207500000000001 -0.1550625 -1.2675625 -0.4679375l-0.0888125 -0.07400000000000001c-0.14024999999999999 -0.137375 -0.32937500000000003 -0.21337499999999998 -0.5258125 -0.21131250000000001 -0.196375 0.0020625 -0.3838125 0.0820625 -0.5211875 0.2224375 -0.137375 0.1403125 -0.21337499999999998 0.3294375 -0.21131250000000001 0.5258125 0.0021249999999999997 0.1963125 0.08212499999999999 0.3838125 0.2224375 0.5211875 0.05374999999999999 0.05499999999999999 0.11056250000000001 0.10687500000000001 0.1701875 0.1554375 0.6324375 0.5478124999999999 1.4489375 0.8356874999999999 2.2851875 0.8055 0.8361875000000001 -0.030187500000000003 1.6298750000000002 -0.3761875 2.2210625 -0.9683124999999999l3.3668125 -3.3668125c0.6225 -0.6185625 0.975125 -1.45825 0.980625 -2.3358125 0.0055625 -0.8775624999999999 -0.336375 -1.7216875 -0.9510625 -2.3480625Z" fill="#ffffff" stroke-width="1"></path></svg>