<svg xmlns="http://www.w3.org/2000/svg" fill="none" viewBox="-0.44 -0.44 14 14" id="Document-Certificate--Streamline-Plump.svg" height="14" width="14"><desc>Document Certificate Streamline Icon: https://streamlinehq.com</desc><g id="document-certificate--document-contract-license-permission-award"><path id="Rectangle 1096" stroke="#ffffff" stroke-linecap="round" stroke-linejoin="round" d="M6.0133333333333345 10.658360000000002c-1.7256626666666668 -0.010414000000000001 -2.9588060000000005 -0.06901666666666667 -3.7589592666666674 -0.12480400000000003 -0.6968578666666667 -0.04859866666666668 -1.2404686666666667 -0.5690253333333334 -1.3016324666666668 -1.2648773333333336C0.8857421333333335 8.506406666666667 0.8200000000000001 7.348594000000001 0.8200000000000001 5.740000000000001s0.06574213333333334 -2.766406666666667 0.13274433333333335 -3.528667733333334c0.06116380000000001 -0.6958684 0.6047718666666667 -1.2163005333333337 1.3016324666666668 -1.2648800666666669C3.136609333333334 0.8849467333333335 4.5452053333333335 0.8200000000000001 6.5600000000000005 0.8200000000000001s3.423390666666667 0.06494946666666668 4.305628666666667 0.12645220000000001c0.6968633333333335 0.04858226666666668 1.2404686666666667 0.5690144000000001 1.301640666666667 1.2648828000000003C12.234263333333336 2.9735933333333335 12.300000000000002 4.131406000000001 12.300000000000002 5.740000000000001s-0.06573666666666668 2.766406666666667 -0.1327306666666667 3.5286786666666674c-0.059176666666666676 0.6731653333333335 -0.5698180000000002 1.1821393333333337 -1.2339360000000001 1.2586180000000002" stroke-width="0.88"></path><path id="Union" stroke="#ffffff" stroke-linecap="round" stroke-linejoin="round" d="M6.0133333333333345 7.653333333333334c0 0.34360733333333343 0.158506 0.6502053333333334 0.40639200000000003 0.8506406666666667 -0.033538000000000005 0.317012 0.07114866666666667 0.6458866666666667 0.31414200000000003 0.8888526666666668 0.18187600000000004 0.18187600000000004 0.41188600000000003 0.2862893333333334 0.6490573333333335 0.3132126666666667 -0.008282000000000001 0.6183346666666667 -0.0012573333333333334 1.4211420000000001 0.05179666666666667 2.2946060000000004 0.013967333333333335 0.22968200000000005 0.2891866666666667 0.3346693333333334 0.45526400000000006 0.17542533333333338l0.4414606666666667 -0.4233386666666667c0.07929400000000002 -0.07604133333333335 0.2044806666666667 -0.07604133333333335 0.28377466666666673 0l0.4414606666666667 0.4233386666666667c0.16607733333333335 0.15924400000000002 0.4412966666666667 0.054256666666666675 0.45526400000000006 -0.17542533333333338 0.053054000000000004 -0.8734640000000002 0.060078666666666676 -1.6762713333333334 0.05179666666666667 -2.2946060000000004 0.23717133333333337 -0.026923333333333337 0.4671813333333334 -0.13133666666666668 0.6490846666666668 -0.3132126666666667 0.24296600000000004 -0.24299333333333337 0.34768000000000004 -0.5718406666666667 0.3141146666666667 -0.8888526666666668C10.774827333333334 8.303538666666668 10.933333333333335 7.996940666666668 10.933333333333335 7.653333333333334c0 -0.34360733333333343 -0.158506 -0.6502053333333334 -0.40639200000000003 -0.8506406666666667 0.03356533333333334 -0.317012 -0.07114866666666667 -0.6458593333333333 -0.3141146666666667 -0.8888526666666668 -0.24296600000000004 -0.24296600000000004 -0.5718406666666667 -0.3476526666666667 -0.8888526666666668 -0.3141146666666667C9.123538666666667 5.351839333333333 8.816940666666667 5.193333333333334 8.473333333333334 5.193333333333334c-0.34360733333333343 0 -0.6502053333333334 0.158506 -0.8506406666666667 0.40639200000000003 -0.317012 -0.033538000000000005 -0.6458593333333333 0.07114866666666667 -0.8888253333333334 0.3141146666666667 -0.24299333333333337 0.24296600000000004 -0.34768000000000004 0.5718406666666667 -0.31414200000000003 0.8888526666666668C6.171839333333334 7.003128000000001 6.0133333333333345 7.309726 6.0133333333333345 7.653333333333334Z" stroke-width="0.88"></path><path id="Ellipse 70" stroke="#ffffff" stroke-linecap="round" stroke-linejoin="round" d="M7.653333333333334 7.665633333333335a0.8200000000000001 0.8200000000000001 0 1 0 1.6400000000000001 0 0.8200000000000001 0.8200000000000001 0 1 0 -1.6400000000000001 0" stroke-width="0.88"></path><path id="Vector 1166" stroke="#ffffff" stroke-linecap="round" stroke-linejoin="round" d="M3.2800000000000002 3.2800000000000002h5.740000000000001" stroke-width="0.88"></path><path id="Vector 1167" stroke="#ffffff" stroke-linecap="round" stroke-linejoin="round" d="M3.2800000000000002 5.193333333333334h1.6400000000000001" stroke-width="0.88"></path></g></svg>