<svg xmlns="http://www.w3.org/2000/svg" viewBox="-0.5 -0.5 16 16" fill="none" stroke="#ffffff" stroke-linecap="round" stroke-linejoin="round" id="Settings--Streamline-Tabler.svg" height="16" width="16"><desc>Settings Streamline Icon: https://streamlinehq.com</desc><path d="M6.453125 2.698125c0.26625 -1.0975 1.8275 -1.0975 2.09375 0a1.0775 1.0775 0 0 0 1.608125 0.66625c0.964375 -0.5874999999999999 2.06875 0.51625 1.4812500000000002 1.4812500000000002a1.0775 1.0775 0 0 0 0.6656249999999999 1.6075c1.0975 0.26625 1.0975 1.8275 0 2.09375a1.0775 1.0775 0 0 0 -0.66625 1.608125c0.5874999999999999 0.964375 -0.51625 2.06875 -1.4812500000000002 1.4812500000000002a1.0775 1.0775 0 0 0 -1.6075 0.6656249999999999c-0.26625 1.0975 -1.8275 1.0975 -2.09375 0a1.0775 1.0775 0 0 0 -1.608125 -0.66625c-0.964375 0.5874999999999999 -2.06875 -0.51625 -1.4812500000000002 -1.4812500000000002a1.0775 1.0775 0 0 0 -0.6656249999999999 -1.6075c-1.0975 -0.26625 -1.0975 -1.8275 0 -2.09375a1.0775 1.0775 0 0 0 0.66625 -1.608125c-0.5874999999999999 -0.964375 0.51625 -2.06875 1.4812500000000002 -1.4812500000000002 0.625 0.38 1.4349999999999998 0.043750000000000004 1.6075 -0.6656249999999999z" stroke-width="1"></path><path d="M5.625 7.5a1.875 1.875 0 1 0 3.75 0 1.875 1.875 0 0 0 -3.75 0" stroke-width="1"></path></svg>