<svg xmlns="http://www.w3.org/2000/svg" fill="none" viewBox="-0.44 -0.44 14 14" id="Cog--Streamline-Ultimate.svg" height="14" width="14"><desc>Cog Streamline Icon: https://streamlinehq.com</desc><path stroke="#ffffff" stroke-linecap="round" stroke-linejoin="round" d="M5.765146666666667 1.3327952000000003c0.10031333333333335 0.11135053333333335 0.22287600000000005 0.20038613333333335 0.3598160000000001 0.261334 0.13694 0.06094240000000001 0.28514133333333336 0.09243586666666667 0.4350373333333334 0.09243586666666667 0.14984133333333335 0 0.2980973333333334 -0.03149346666666667 0.4349826666666667 -0.09243586666666667 0.13694 -0.06094786666666668 0.25955733333333336 -0.14998346666666668 0.3598706666666667 -0.261334l0.5171466666666668 -0.56744c0.14820133333333335 -0.1640328 0.34352533333333335 -0.27817844 0.5592400000000001 -0.3267672666666667 0.21566000000000005 -0.048588280000000005 0.4410506666666667 -0.02924065333333334 0.6452853333333334 0.05538826666666667 0.20423466666666668 0.08462673333333334 0.3773093333333334 0.23038993333333338 0.4953893333333334 0.4172788666666667 0.11808000000000002 0.18688893333333337 0.17542533333333338 0.4057469333333334 0.16421866666666668 0.6265401333333334l-0.03881333333333334 0.7653278666666669c-0.007544000000000001 0.14930013333333336 0.016345333333333337 0.29851826666666675 0.06997333333333335 0.43803853333333337 0.05368266666666667 0.1395202666666667 0.1360106666666667 0.26625400000000005 0.2416266666666667 0.37203400000000003s0.23222400000000004 0.1882610666666667 0.3716786666666667 0.2421350666666667c0.13945466666666667 0.05386853333333334 0.28864000000000006 0.07793826666666667 0.43793466666666675 0.07065120000000001l0.7653333333333334 -0.03881333333333334c0.2206346666666667 -0.010878666666666668 0.43924666666666673 0.04674546666666667 0.6258786666666668 0.1649730666666667 0.18657733333333335 0.11823306666666668 0.33210000000000006 0.29128040000000005 0.4165053333333334 0.4954330666666667 0.08440533333333335 0.2041526666666667 0.10359333333333334 0.4294121333333334 0.05499466666666667 0.6449136000000002 -0.04859866666666668 0.21549600000000002 -0.162688 0.4106833333333334 -0.32657866666666674 0.5588136l-0.5696266666666667 0.5138448000000001c-0.11124666666666667 0.10047733333333335 -0.20013466666666668 0.22314933333333337 -0.2609786666666667 0.3600893333333334 -0.06084400000000001 0.13699466666666668 -0.09227733333333335 0.28519600000000006 -0.09227733333333335 0.4350373333333334 0 0.14989600000000003 0.03143333333333334 0.2980973333333334 0.09227733333333335 0.4350373333333334 0.06084400000000001 0.13699466666666668 0.149732 0.2596666666666667 0.2609786666666667 0.3600893333333334l0.5696266666666667 0.5138666666666667c0.164 0.14825600000000003 0.27814400000000006 0.34358 0.32674266666666674 0.5592400000000001 0.04859866666666668 0.21566000000000005 0.02924666666666667 0.44110533333333335 -0.05537733333333334 0.6453400000000001 -0.084624 0.20423466666666668 -0.23036533333333337 0.37725466666666674 -0.41727066666666673 0.49533466666666676 -0.18690533333333334 0.11813466666666668 -0.40573600000000004 0.17548000000000002 -0.6265346666666667 0.16421866666666668l-0.7653333333333334 -0.03881333333333334c-0.14962266666666668 -0.007653333333333335 -0.29924533333333336 0.016126666666666668 -0.43908266666666673 0.06986400000000001 -0.13983733333333337 0.053792000000000006 -0.266828 0.13628400000000002 -0.37277200000000005 0.24222800000000003 -0.10594400000000001 0.10594400000000001 -0.1884906666666667 0.23298933333333338 -0.24222800000000003 0.37282666666666675 -0.053792000000000006 0.13983733333333337 -0.07757200000000002 0.28940533333333335 -0.06986400000000001 0.4390280000000001l0.03881333333333334 0.7653333333333334c0.009785333333333335 0.21970533333333336 -0.048325333333333345 0.43706000000000006 -0.1663506666666667 0.6225986666666667 -0.11802533333333336 0.18553866666666669 -0.29033466666666674 0.3301866666666667 -0.493476 0.41437333333333337 -0.20314133333333337 0.08424133333333333 -0.4272746666666667 0.10381200000000002 -0.6419506666666667 0.05619733333333334 -0.21467600000000003 -0.04761466666666667 -0.40950800000000004 -0.16017333333333333 -0.5579826666666667 -0.3223693333333334l-0.5144133333333334 -0.56908c-0.10042266666666669 -0.11119200000000001 -0.22304000000000002 -0.20008000000000004 -0.35998 -0.26092400000000004 -0.13688533333333336 -0.06084400000000001 -0.285032 -0.09227733333333335 -0.4348733333333334 -0.09227733333333335s-0.2979880000000001 0.03143333333333334 -0.43492800000000004 0.09227733333333335c-0.13688533333333336 0.06084400000000001 -0.2595026666666667 0.149732 -0.3599253333333334 0.26092400000000004L5.2512690666666675 12.354666666666668c-0.14825053333333335 0.16296133333333335 -0.3431481333333334 0.2762306666666667 -0.5581193333333334 0.32439200000000007 -0.2149766666666667 0.04810666666666667 -0.43956920000000005 0.028809333333333336 -0.6431588 -0.05537733333333334 -0.2035896 -0.08413200000000001 -0.3762652 -0.22905333333333336 -0.49449826666666674 -0.41492000000000007 -0.11823306666666668 -0.1858666666666667 -0.1762562666666667 -0.4037133333333334 -0.1661702666666667 -0.6238013333333334l0.039360000000000006 -0.7653333333333334c0.007697066666666668 -0.14962266666666668 -0.016104800000000002 -0.2991906666666667 -0.06986400000000001 -0.4390280000000001 -0.053764666666666676 -0.13983733333333337 -0.13628400000000002 -0.2668826666666667 -0.24222800000000003 -0.37282666666666675 -0.10594400000000001 -0.10594400000000001 -0.2329510666666667 -0.18843600000000002 -0.37279933333333337 -0.24222800000000003 -0.1398482666666667 -0.05373733333333334 -0.28942720000000005 -0.07751733333333335 -0.4390553333333334 -0.06986400000000001l-0.7653333333333334 0.03881333333333334c-0.2207002666666667 0.011534666666666669 -0.4395528000000001 -0.04553733333333334 -0.6265128000000001 -0.1633986666666667 -0.1869654666666667 -0.11780666666666668 -0.3328708 -0.29060800000000003 -0.41768504000000006 -0.49467866666666677 -0.08481642666666668 -0.20412533333333338 -0.10438600000000002 -0.4294066666666667 -0.05602130666666667 -0.6450666666666667 0.04836414666666667 -0.21566000000000005 0.16229221333333335 -0.4110386666666667 0.3261391466666667 -0.5593493333333335l0.56908 -0.5138666666666667c0.11121933333333335 -0.10042266666666669 0.20012373333333336 -0.22309466666666672 0.2609732 -0.3600893333333334 0.06084946666666668 -0.13694 0.09229373333333335 -0.28514133333333336 0.09229373333333335 -0.4350373333333334 0 -0.14984133333333335 -0.03144426666666667 -0.29804266666666673 -0.09229373333333335 -0.4350373333333334 -0.06084946666666668 -0.13694 -0.1497538666666667 -0.259612 -0.2609732 -0.3600893333333334l-0.56908 -0.5165781333333335c-0.1633166666666667 -0.1481466666666667 -0.27689596000000005 -0.3431153333333334 -0.32521145333333334 -0.5582560000000001 -0.04831549333333334 -0.2151406666666667 -0.029009413333333338 -0.43995186666666675 0.05527948000000001 -0.6437054666666668 0.08428944000000001 -0.20375360000000003 0.22944584 -0.3765002666666667 0.4156295733333334 -0.49463493333333336 0.18618373333333335 -0.11812920000000002 0.40430920000000004 -0.1758790666666667 0.6245557333333334 -0.1653502666666667l0.7653333333333334 0.03881333333333334c0.1499124 0.007877466666666668 0.2998029333333334 -0.015858800000000003 0.43994640000000007 -0.06968360000000001 0.14013800000000004 -0.05381933333333334 0.26739106666666673 -0.1365136 0.37348813333333336 -0.24271453333333337 0.10609706666666668 -0.10620093333333334 0.1886710666666667 -0.23353600000000005 0.24235373333333338 -0.3737232000000001 0.05368266666666667 -0.1401926666666667 0.07727680000000002 -0.29011053333333336 0.06925173333333334 -0.440012l-0.036626666666666675 -0.7658854666666668c-0.010326533333333335 -0.22015906666666668 0.04752173333333334 -0.4381478666666668 0.16566186666666669 -0.6242113333333335 0.11814013333333336 -0.18606893333333335 0.2908157333333334 -0.33115426666666675 0.49446000000000007 -0.4154568266666668 0.2036442666666667 -0.08430365333333334 0.4283406666666667 -0.10372070666666669 0.6434266666666668 -0.05560146666666667 0.21508600000000005 0.048118693333333344 0.41008746666666673 0.16143176000000004 0.5583981333333334 0.32447509333333335l0.5138776 0.56744Z" stroke-width="0.88"></path><path stroke="#ffffff" stroke-linecap="round" stroke-linejoin="round" d="M4.1000000000000005 6.560546666666667c0 0.6524466666666667 0.25918013333333334 1.278106666666667 0.7205176000000001 1.7394933333333336 0.46133746666666675 0.4613320000000001 1.0870357333333336 0.7205066666666669 1.7394824000000002 0.7205066666666669 0.6524466666666667 0 1.2781613333333335 -0.2591746666666667 1.7394933333333336 -0.7205066666666669 0.4613320000000001 -0.4613866666666667 0.7205066666666669 -1.0870466666666667 0.7205066666666669 -1.7394933333333336s-0.2591746666666667 -1.2781558666666668 -0.7205066666666669 -1.7394933333333336c-0.4613320000000001 -0.4613429333333334 -1.0870466666666667 -0.7205176000000001 -1.7394933333333336 -0.7205176000000001s-1.2781449333333337 0.2591746666666667 -1.7394824000000002 0.7205176000000001C4.359180133333334 5.282390800000001 4.1000000000000005 5.9081 4.1000000000000005 6.560546666666667Z" stroke-width="0.88"></path></svg>
