<svg xmlns="http://www.w3.org/2000/svg" fill="none" viewBox="0 0 14 14" id="Sync--Streamline-Rounded-Material" height="14" width="14"><desc>Sync Streamline Icon: https://streamlinehq.com</desc><path fill="#000000" d="M3.2083333333333335 7.04375c0 0.6125 0.11424583333333334 1.1447916666666667 0.3427083333333334 1.596875 0.2284625 0.4520833333333334 0.5371625 0.8434125000000001 0.9260416666666667 1.1739583333333334l0.4375 0.30625V8.75c0 -0.12637916666666668 0.04132916666666667 -0.2309125 0.12395833333333334 -0.31354166666666666s0.18716250000000004 -0.12395833333333334 0.31354166666666666 -0.12395833333333334c0.12637916666666668 0 0.2309125 0.04132916666666667 0.31354166666666666 0.12395833333333334s0.12395833333333334 0.18716250000000004 0.12395833333333334 0.31354166666666666v2.479166666666667c0 0.12637916666666668 -0.04132916666666667 0.2309125 -0.12395833333333334 0.31354166666666666S5.478462500000001 11.666666666666668 5.352083333333334 11.666666666666668h-2.479166666666667c-0.12638791666666668 0 -0.23090375000000002 -0.04132916666666667 -0.31354166666666666 -0.12395833333333334 -0.08263791666666669 -0.08262916666666667 -0.12395833333333334 -0.18716250000000004 -0.12395833333333334 -0.31354166666666666 0 -0.12637916666666668 0.041320416666666665 -0.2309125 0.12395833333333334 -0.31354166666666666 0.08263791666666669 -0.08262916666666667 0.18715375 -0.12395833333333334 0.31354166666666666 -0.12395833333333334h1.4583333333333335l-0.21875 -0.17500000000000002c-0.6222125000000001 -0.49583333333333335 -1.0742958333333334 -1.0354166666666667 -1.3562500000000002 -1.6187500000000001 -0.28194541666666667 -0.5833333333333334 -0.42291666666666666 -1.2347125 -0.42291666666666666 -1.9541666666666668 0 -0.9138791666666668 0.240625 -1.7475791666666667 0.721875 -2.5010416666666666 0.48125 -0.7534625 1.1253375 -1.3246625 1.9322916666666667 -1.7135416666666667 0.10695416666666668 -0.04861208333333334 0.20903750000000001 -0.04861208333333334 0.30625 0 0.09721250000000001 0.04861208333333334 0.1652875 0.12637916666666668 0.20416666666666666 0.23333333333333336 0.048620833333333335 0.10695416666666668 0.048620833333333335 0.21632916666666668 0 0.328125s-0.12637916666666668 0.19687500000000002 -0.23333333333333336 0.25520833333333337c-0.6222125000000001 0.33054583333333337 -1.1204958333333335 0.7996624999999999 -1.4947916666666667 1.4072916666666668C3.3954958333333334 5.660754166666667 3.2083333333333335 6.324295833333333 3.2083333333333335 7.04375Zm7.583333333333334 -0.08750000000000001c0 -0.46666666666666673 -0.11424583333333334 -0.940625 -0.3427083333333334 -1.421875 -0.2284625 -0.48125 -0.5274208333333333 -0.9065875 -0.8968750000000001 -1.2760416666666667l-0.42291666666666666 -0.3791666666666667V5.25c0 0.12637916666666668 -0.04132916666666667 0.2309125 -0.12395833333333334 0.31354166666666666s-0.18716250000000004 0.12395833333333334 -0.31354166666666666 0.12395833333333334c-0.12637916666666668 0 -0.2309125 -0.04132916666666667 -0.31354166666666666 -0.12395833333333334S8.254166666666668 5.376379166666667 8.254166666666668 5.25V2.7708333333333335c0 -0.12638791666666668 0.04132916666666667 -0.23090375000000002 0.12395833333333334 -0.31354166666666666 0.08262916666666667 -0.08263791666666669 0.18716250000000004 -0.12395833333333334 0.31354166666666666 -0.12395833333333334h2.479166666666667c0.12637916666666668 0 0.2309125 0.041320416666666665 0.31354166666666666 0.12395833333333334 0.08262916666666667 0.08263791666666669 0.12395833333333334 0.18715375 0.12395833333333334 0.31354166666666666s-0.04132916666666667 0.2309125 -0.12395833333333334 0.31354166666666666S11.2972125 3.2083333333333335 11.170833333333333 3.2083333333333335h-1.4729166666666667l0.21875 0.20416666666666666c0.5833333333333334 0.5444541666666667 1.0208333333333335 1.1277875 1.3125 1.75s0.4375 1.2201291666666667 0.4375 1.7937500000000002c0 0.9041666666666668 -0.23333333333333336 1.7281250000000001 -0.7000000000000001 2.4718750000000003 -0.46666666666666673 0.74375 -1.09375 1.319791666666667 -1.88125 1.7281250000000001 -0.10695416666666668 0.05833333333333334 -0.21632916666666668 0.065625 -0.328125 0.021875000000000002 -0.11179583333333333 -0.043750000000000004 -0.19200416666666667 -0.12395833333333334 -0.240625 -0.240625 -0.048620833333333335 -0.10695416666666668 -0.048620833333333335 -0.21632916666666668 0 -0.328125s0.12637916666666668 -0.19687500000000002 0.23333333333333336 -0.25520833333333337c0.6319541666666667 -0.32083333333333336 1.1302083333333335 -0.7875000000000001 1.4947916666666667 -1.4000000000000001C10.609375 8.341666666666667 10.791666666666668 7.675704166666668 10.791666666666668 6.956250000000001Z" stroke-width="0.2917"></path></svg>