<svg viewBox="-0.5 -0.5 16 16" fill="none" xmlns="http://www.w3.org/2000/svg" id="Grid-Plus--Streamline-Iconoir" height="16" width="16"><desc>Grid Plus Streamline Icon: https://streamlinehq.com</desc><path d="M9.1734375 11.7h2.52m2.52 0h-2.52m0 0v-2.52m0 2.52v2.52" stroke="#000000" stroke-linecap="round" stroke-linejoin="round" stroke-width="1"></path><path d="M0.78 5.316V1.2839999999999998c0 -0.27837500000000004 0.225625 -0.504 0.504 -0.504h4.032c0.27837500000000004 0 0.504 0.225625 0.504 0.504v4.032c0 0.27837500000000004 -0.225625 0.504 -0.504 0.504H1.2839999999999998c-0.27837500000000004 0 -0.504 -0.225625 -0.504 -0.504Z" stroke="#000000" stroke-width="1"></path><path d="M0.78 13.716v-4.032c0 -0.27837500000000004 0.225625 -0.504 0.504 -0.504h4.032c0.27837500000000004 0 0.504 0.225625 0.504 0.504v4.032c0 0.27837500000000004 -0.225625 0.504 -0.504 0.504H1.2839999999999998c-0.27837500000000004 0 -0.504 -0.225625 -0.504 -0.504Z" stroke="#000000" stroke-width="1"></path><path d="M9.18 5.316V1.2839999999999998c0 -0.27837500000000004 0.225625 -0.504 0.504 -0.504h4.032c0.27837500000000004 0 0.504 0.225625 0.504 0.504v4.032c0 0.27837500000000004 -0.225625 0.504 -0.504 0.504h-4.032c-0.27837500000000004 0 -0.504 -0.225625 -0.504 -0.504Z" stroke="#000000" stroke-width="1"></path></svg>