<svg viewBox="-0.565 -0.565 18 18" fill="none" xmlns="http://www.w3.org/2000/svg" id="Bug--Streamline-Solar-Ar" height="18" width="18"><desc>Bug Streamline Icon: https://streamlinehq.com</desc><path d="M13.355416666666667 10.54375v-2.1526822916666664C13.355416666666667 6.862491066666665 12.116244875000001 5.623333333333333 10.587682291666667 5.623333333333333h-4.305364583333333C4.753741066666667 5.623333333333333 3.5145833333333334 6.862491066666665 3.5145833333333334 8.391067708333333V10.54375c0 2.7174758333333333 2.2029478625 4.920416666666666 4.920416666666666 4.920416666666666 2.7174758333333333 0 4.920416666666666 -2.2029408333333333 4.920416666666666 -4.920416666666666Z" stroke="#000000" stroke-width="1.13"></path><path d="M11.598125 5.9747916666666665v-0.7029166666666666C11.598125 3.5249302666666664 10.181958791666666 2.1087499999999997 8.434999999999999 2.1087499999999997 6.688055266666667 2.1087499999999997 5.271875 3.5249302666666664 5.271875 5.271875v0.7029166666666666" stroke="#000000" stroke-width="1.13"></path><path d="M13.355416666666667 9.840833333333332h2.1087499999999997" stroke="#000000" stroke-linecap="round" stroke-width="1.13"></path><path d="M3.5145833333333334 9.840833333333332H1.4058333333333333" stroke="#000000" stroke-linecap="round" stroke-width="1.13"></path><path d="M10.192291666666666 2.460208333333333 11.949583333333333 1.4058333333333333" stroke="#000000" stroke-linecap="round" stroke-width="1.13"></path><path d="M6.677708333333333 2.460208333333333 4.920416666666666 1.4058333333333333" stroke="#000000" stroke-linecap="round" stroke-width="1.13"></path><path d="m14.409791666666665 14.058473916666665 -1.4058333333333333 -0.5623333333333334" stroke="#000000" stroke-linecap="round" stroke-width="1.13"></path><path d="m14.409791666666665 5.623192749999999 -1.4058333333333333 0.5623333333333334" stroke="#000000" stroke-linecap="round" stroke-width="1.13"></path><path d="m2.460208333333333 14.058473916666665 1.4058333333333333 -0.5623333333333334" stroke="#000000" stroke-linecap="round" stroke-width="1.13"></path><path d="m2.460208333333333 5.623192749999999 1.4058333333333333 0.5623333333333334" stroke="#000000" stroke-linecap="round" stroke-width="1.13"></path><path d="M8.434999999999999 15.112708333333332V10.54375" stroke="#000000" stroke-linecap="round" stroke-width="1.13"></path></svg>