<svg xmlns="http://www.w3.org/2000/svg" fill="none" viewBox="0 0 14 14" id="Change-Circle--Streamline-Rounded-Material" height="14" width="14"><desc>Change Circle Streamline Icon: https://streamlinehq.com</desc><path fill="#000000" d="M7.04375 9.027083333333334c-0.2819541666666667 0.009712500000000002 -0.5517458333333334 -0.036458333333333336 -0.8093750000000001 -0.13854166666666667s-0.4836708333333334 -0.2503375 -0.6781250000000001 -0.4447916666666667c-0.19445416666666668 -0.19445416666666668 -0.3427083333333334 -0.4132041666666667 -0.4447916666666667 -0.65625 -0.10208333333333333 -0.24304583333333335 -0.153125 -0.5007041666666666 -0.153125 -0.7729166666666667 0 -0.09721250000000001 0.007291666666666668 -0.19200416666666667 0.021875000000000002 -0.284375 0.014583333333333335 -0.09237083333333333 0.036458333333333336 -0.18716250000000004 0.065625 -0.284375 0.03887916666666667 -0.11666666666666668 0.036458333333333336 -0.23333333333333336 -0.007291666666666668 -0.35000000000000003 -0.043750000000000004 -0.11666666666666668 -0.11908750000000001 -0.20416666666666666 -0.2260416666666667 -0.2625 -0.10695416666666668 -0.05833333333333334 -0.21875 -0.06804583333333333 -0.33541666666666664 -0.02916666666666667 -0.11666666666666668 0.03887916666666667 -0.19445416666666668 0.11666666666666668 -0.23333333333333336 0.23333333333333336 -0.048620833333333335 0.15554583333333336 -0.08750000000000001 0.31354166666666666 -0.11666666666666668 0.47395833333333337 -0.02916666666666667 0.16041666666666668 -0.043750000000000004 0.32325416666666673 -0.043750000000000004 0.4885416666666667 0 0.38887916666666666 0.0753375 0.7607541666666666 0.2260416666666667 1.115625 0.1507041666666667 0.3548708333333333 0.36216250000000005 0.6684125000000001 0.634375 0.940625 0.2625 0.2722125 0.5711708333333333 0.48125 0.9260416666666667 0.6270833333333333s0.721875 0.22362083333333335 1.1010416666666667 0.23333333333333336l-0.24791666666666667 0.24791666666666667c-0.08750000000000001 0.08750000000000001 -0.13125 0.18958333333333335 -0.13125 0.30625s0.043750000000000004 0.21875 0.13125 0.30625c0.08750000000000001 0.08750000000000001 0.18958333333333335 0.13125 0.30625 0.13125s0.21875 -0.043750000000000004 0.30625 -0.13125l1.05 -1.0354166666666667c0.08750000000000001 -0.08750000000000001 0.13125 -0.18958333333333335 0.13125 -0.30625s-0.043750000000000004 -0.21875 -0.13125 -0.30625l-1.05 -1.0354166666666667c-0.08750000000000001 -0.08750000000000001 -0.18958333333333335 -0.13125 -0.30625 -0.13125s-0.21875 0.043750000000000004 -0.30625 0.13125c-0.08750000000000001 0.08750000000000001 -0.13125 0.18958333333333335 -0.13125 0.30625s0.043750000000000004 0.21875 0.13125 0.30625l0.32083333333333336 0.32083333333333336ZM6.941666666666667 4.958333333333334c0.2819541666666667 0 0.5541666666666667 0.051041666666666666 0.8166666666666667 0.153125 0.2625 0.10208333333333333 0.4909625 0.2503375 0.6854166666666668 0.4447916666666667 0.19445416666666668 0.19445416666666668 0.3427083333333334 0.4132041666666667 0.4447916666666667 0.65625 0.10208333333333333 0.24304583333333335 0.153125 0.5007041666666666 0.153125 0.7729166666666667 0 0.09721250000000001 -0.004870833333333334 0.19200416666666667 -0.014583333333333335 0.284375s-0.02916666666666667 0.18229166666666669 -0.05833333333333334 0.2697916666666667c-0.03887916666666667 0.11666666666666668 -0.036458333333333336 0.23333333333333336 0.007291666666666668 0.35000000000000003 0.043750000000000004 0.11666666666666668 0.11908750000000001 0.19929583333333334 0.2260416666666667 0.24791666666666667 0.11666666666666668 0.048620833333333335 0.23333333333333336 0.048620833333333335 0.35000000000000003 0 0.11666666666666668 -0.048620833333333335 0.19445416666666668 -0.13125 0.23333333333333336 -0.24791666666666667 0.048620833333333335 -0.14583333333333334 0.08262916666666667 -0.2916666666666667 0.10208333333333333 -0.4375 0.019454166666666668 -0.14583333333333334 0.02916666666666667 -0.2965375 0.02916666666666667 -0.4520833333333334 0 -0.38887916666666666 -0.07049583333333334 -0.7607541666666666 -0.21145833333333333 -1.115625 -0.14096250000000002 -0.3548708333333333 -0.35242083333333335 -0.6732541666666667 -0.634375 -0.9552083333333333 -0.2722125 -0.2722125 -0.5857541666666668 -0.4788291666666667 -0.940625 -0.6197916666666667 -0.3548708333333333 -0.14096250000000002 -0.721875 -0.21145833333333333 -1.1010416666666667 -0.21145833333333333l0.2625 -0.2625c0.07778750000000001 -0.08750000000000001 0.11666666666666668 -0.18958333333333335 0.11666666666666668 -0.30625s-0.043750000000000004 -0.21875 -0.13125 -0.30625c-0.08750000000000001 -0.08750000000000001 -0.18958333333333335 -0.13125 -0.30625 -0.13125s-0.21875 0.043750000000000004 -0.30625 0.13125l-1.05 1.0354166666666667c-0.08750000000000001 0.08750000000000001 -0.13125 0.18958333333333335 -0.13125 0.30625s0.043750000000000004 0.21875 0.13125 0.30625l1.05 1.0354166666666667c0.08750000000000001 0.08750000000000001 0.18958333333333335 0.13125 0.30625 0.13125s0.21875 -0.043750000000000004 0.30625 -0.13125c0.08750000000000001 -0.08750000000000001 0.13125 -0.18958333333333335 0.13125 -0.30625s-0.043750000000000004 -0.21875 -0.13125 -0.30625L6.941666666666667 4.958333333333334Zm0.05833333333333334 7.875000000000001c-0.7972125 0 -1.5507041666666668 -0.153125 -2.260416666666667 -0.45937500000000003 -0.7097125000000001 -0.30625 -1.3295041666666667 -0.7242958333333334 -1.8593750000000002 -1.2541666666666667 -0.5298620833333334 -0.5298708333333334 -0.9479166666666667 -1.1496625 -1.2541666666666667 -1.8593750000000002C1.319791666666667 8.550704166666668 1.1666666666666667 7.7972125000000005 1.1666666666666667 7c0 -0.8069541666666668 0.153125 -1.5652875 0.45937500000000003 -2.275 0.30625 -0.7097125000000001 0.7243045833333334 -1.3270833333333334 1.2541666666666667 -1.8520833333333333 0.5298708333333334 -0.525 1.1496625 -0.940625 1.8593750000000002 -1.2468750000000002C5.449295833333333 1.319791666666667 6.2027875 1.1666666666666667 7 1.1666666666666667c0.8069541666666668 0 1.5652875 0.153125 2.275 0.45937500000000003 0.7097125000000001 0.30625 1.3270833333333334 0.721875 1.8520833333333333 1.2468750000000002 0.525 0.525 0.940625 1.1423708333333333 1.2468750000000002 1.8520833333333333C12.680208333333335 5.4347125 12.833333333333334 6.193045833333334 12.833333333333334 7c0 0.7972125 -0.153125 1.5507041666666668 -0.45937500000000003 2.260416666666667 -0.30625 0.7097125000000001 -0.721875 1.3295041666666667 -1.2468750000000002 1.8593750000000002 -0.525 0.5298708333333334 -1.1423708333333333 0.9479166666666667 -1.8520833333333333 1.2541666666666667C8.5652875 12.680208333333335 7.806954166666667 12.833333333333334 7 12.833333333333334Zm0 -0.875c1.3805458333333334 0 2.5520833333333335 -0.4836708333333334 3.514583333333334 -1.4510416666666666C11.477083333333335 9.539920833333335 11.958333333333334 8.370833333333334 11.958333333333334 7c0 -1.3805458333333334 -0.48125 -2.5520833333333335 -1.44375 -3.514583333333334C9.552083333333334 2.522916666666667 8.380545833333334 2.041666666666667 7 2.041666666666667c-1.3708333333333336 0 -2.5399208333333334 0.48125 -3.507291666666667 1.44375C2.52534625 4.447916666666667 2.041666666666667 5.619454166666667 2.041666666666667 7c0 1.3708333333333336 0.4836795833333334 2.5399208333333334 1.4510416666666666 3.507291666666667C4.4600791666666675 11.4746625 5.629166666666667 11.958333333333334 7 11.958333333333334Z" stroke-width="0.2917"></path></svg>