<svg viewBox="-0.5 -0.5 16 16" fill="none" xmlns="http://www.w3.org/2000/svg" id="Badge-Check--Streamline-Iconoir" height="16" width="16"><desc>Badge Check Streamline Icon: https://streamlinehq.com</desc><path d="M6.49175 1.106875c0.541 -0.594 1.4754999999999998 -0.594 2.0164999999999997 0l0.6955625 0.7638125c0.27337500000000003 0.3001875 0.6663125000000001 0.4629375 1.0719375 0.444l1.0319375 -0.04825c0.8025 -0.0375 1.463375 0.623375 1.425875 1.425875l-0.04825 1.0319375c-0.0189375 0.40556250000000005 0.1438125 0.7985 0.444 1.0718750000000001l0.7638125 0.6956249999999999c0.594 0.541 0.594 1.4754999999999998 0 2.0164999999999997l-0.7638125 0.6955625c-0.3001875 0.27337500000000003 -0.4629375 0.6663125000000001 -0.444 1.0719375l0.04825 1.0319375c0.0375 0.8025 -0.623375 1.463375 -1.425875 1.425875l-1.0319375 -0.04825c-0.405625 -0.0189375 -0.7985625000000001 0.1438125 -1.0719375 0.444l-0.6955625 0.7638125c-0.541 0.594 -1.4754999999999998 0.594 -2.0164999999999997 0l-0.6956249999999999 -0.7638125c-0.27337500000000003 -0.3001875 -0.6663125000000001 -0.4629375 -1.0718750000000001 -0.444l-1.0319375 0.04825c-0.8025 0.0375 -1.463375 -0.623375 -1.425875 -1.425875l0.04825 -1.0319375c0.0189375 -0.405625 -0.1438125 -0.7985625000000001 -0.444 -1.0719375L1.106875 8.50825c-0.594 -0.541 -0.594 -1.4754999999999998 0 -2.0164999999999997l0.7638125 -0.6956249999999999c0.3001875 -0.27337500000000003 0.4629375 -0.6663125000000001 0.444 -1.0718750000000001l-0.04825 -1.0319375c-0.0375 -0.8025 0.623375 -1.463375 1.425875 -1.425875l1.0319375 0.04825c0.40556250000000005 0.0189375 0.7985 -0.1438125 1.0718750000000001 -0.444l0.6956249999999999 -0.7638125Z" stroke="#000000" stroke-width="1"></path><path d="m5.4544999999999995 7.5 1.3636249999999999 1.3636875000000002 2.7273750000000003 -2.7273750000000003" stroke="#000000" stroke-linecap="round" stroke-linejoin="round" stroke-width="1"></path></svg>