<svg xmlns="http://www.w3.org/2000/svg" fill="none" viewBox="0 0 16 16" id="Check--Streamline-Rounded-Material" height="16" width="16"><desc>Check Streamline Icon: https://streamlinehq.com</desc><path fill="#000000" d="m6.299999999999999 10.4666 6.049999999999999 -6.049999999999999c0.103 -0.09999999999999999 0.2232333333333333 -0.15 0.3606666666666667 -0.15 0.1373333333333333 0 0.256 0.05026666666666666 0.356 0.15083333333333332 0.09999999999999999 0.10066666666666665 0.15 0.2201 0.15 0.3583333333333333 0 0.1383333333333333 -0.049999999999999996 0.25749999999999995 -0.15 0.3575l-6.416666666666666 6.416666666666666c-0.09999999999999999 0.09999999999999999 -0.21666666666666667 0.15 -0.35 0.15s-0.25 -0.049999999999999996 -0.35 -0.15l-3.033336666666666 -3.033333333333333c-0.09999999999999999 -0.10076666666666667 -0.14722333333333332 -0.22039999999999998 -0.14166666666666666 -0.35883333333333334 0.005553333333333334 -0.13856666666666667 0.058609999999999995 -0.2578333333333333 0.15916666666666665 -0.3578333333333333 0.10066666666666665 -0.09999999999999999 0.22010999999999997 -0.15 0.3583333333333333 -0.15 0.13833666666666666 0 0.2575033333333333 0.049999999999999996 0.35750333333333334 0.15l2.65 2.6666666666666665Z" stroke-width="0.3333"></path></svg>