<svg xmlns="http://www.w3.org/2000/svg" fill="none" viewBox="0 0 14 14" id="Close--Streamline-Rounded-Material" height="14" width="14"><desc>Close Streamline Icon: https://streamlinehq.com</desc><path fill="#000000" d="m7 7.612558333333334 -3.0625 3.0625c-0.08750000000000001 0.08750000000000001 -0.18958333333333335 0.13125 -0.30625 0.13125s-0.21875 -0.043750000000000004 -0.30625 -0.13125c-0.08750000000000001 -0.08750000000000001 -0.13125 -0.18958333333333335 -0.13125 -0.30625s0.043750000000000004 -0.21875 0.13125 -0.30625l3.0625 -3.0625 -3.0625 -3.0625c-0.08750000000000001 -0.08750000000000001 -0.13125 -0.18958333333333335 -0.13125 -0.30625s0.043750000000000004 -0.21875 0.13125 -0.30625c0.08750000000000001 -0.08750000000000001 0.18958333333333335 -0.13125 0.30625 -0.13125s0.21875 0.043750000000000004 0.30625 0.13125l3.0625 3.0625 3.0625 -3.0625c0.08750000000000001 -0.08750000000000001 0.18958333333333335 -0.13125 0.30625 -0.13125s0.21875 0.043750000000000004 0.30625 0.13125c0.08750000000000001 0.08750000000000001 0.13125 0.18958333333333335 0.13125 0.30625s-0.043750000000000004 0.21875 -0.13125 0.30625l-3.0625 3.0625 3.0625 3.0625c0.08750000000000001 0.08750000000000001 0.13125 0.18958333333333335 0.13125 0.30625s-0.043750000000000004 0.21875 -0.13125 0.30625c-0.08750000000000001 0.08750000000000001 -0.18958333333333335 0.13125 -0.30625 0.13125s-0.21875 -0.043750000000000004 -0.30625 -0.13125l-3.0625 -3.0625Z" stroke-width="0.2917"></path></svg>