<svg xmlns="http://www.w3.org/2000/svg" fill="none" viewBox="-0.5 -0.5 16 16" stroke-linecap="round" stroke-linejoin="round" stroke="#000000" id="Copy--Streamline-Mynaui" height="16" width="16"><desc>Copy Streamline Icon: https://streamlinehq.com</desc><path d="M13.018125000000001 8.038125c0.10687500000000001 -0.258125 0.10687500000000001 -0.5862499999999999 0.10687500000000001 -1.24125s0 -0.983125 -0.10687500000000001 -1.24125a1.40625 1.40625 0 0 0 -0.76125 -0.76125c-0.258125 -0.10687500000000001 -0.5862499999999999 -0.10687500000000001 -1.24125 -0.10687500000000001H6.9375c-0.7875 0 -1.18125 0 -1.481875 0.153125a1.40625 1.40625 0 0 0 -0.615 0.615C4.6875 5.755625 4.6875 6.149375 4.6875 6.9375v4.078125c0 0.655 0 0.983125 0.10687500000000001 1.24125 0.143125 0.34437500000000004 0.416875 0.61875 0.76125 0.76125 0.258125 0.10687500000000001 0.5862499999999999 0.10687500000000001 1.24125 0.10687500000000001s0.983125 0 1.24125 -0.10687500000000001m4.98 -4.98a1.40625 1.40625 0 0 1 -0.76125 0.76125c-0.258125 0.10687500000000001 -0.5862499999999999 0.10687500000000001 -1.24125 0.10687500000000001s-0.983125 0 -1.24125 0.10687500000000001a1.40625 1.40625 0 0 0 -0.76125 0.76125c-0.10687500000000001 0.258125 -0.10687500000000001 0.5862499999999999 -0.10687500000000001 1.24125s0 0.983125 -0.10687500000000001 1.24125a1.40625 1.40625 0 0 1 -0.76125 0.76125m4.98 -4.98a7.29875 7.29875 0 0 1 -4.84375 4.9375l-0.13625 0.0425M10.3125 4.6875v-0.5625c0 -0.7875 0 -1.18125 -0.153125 -1.481875a1.40625 1.40625 0 0 0 -0.614375 -0.615C9.243749999999999 1.875 8.85 1.875 8.0625 1.875H4.125c-0.7875 0 -1.18125 0 -1.481875 0.153125a1.40625 1.40625 0 0 0 -0.615 0.615C1.875 2.9431249999999998 1.875 3.336875 1.875 4.125v3.9375c0 0.7875 0 1.18125 0.153125 1.481875 0.135 0.265 0.35000000000000003 0.48 0.615 0.615 0.3 0.153125 0.694375 0.153125 1.4825 0.153125H4.6875" stroke-width="1"></path></svg>