<svg xmlns="http://www.w3.org/2000/svg" fill="none" viewBox="0 0 14 14" id="Description--Streamline-Rounded-Material" height="14" width="14"><desc>Description Streamline Icon: https://streamlinehq.com</desc><path fill="#000000" d="M5.089583333333334 10.354166666666668h3.8208333333333333c0.12395833333333334 0 0.2278791666666667 -0.04220416666666667 0.3117916666666667 -0.12658333333333335 0.08379583333333333 -0.08429166666666667 0.12570833333333334 -0.18879583333333333 0.12570833333333334 -0.31354166666666666 0 -0.12462916666666668 -0.0419125 -0.2282875 -0.12570833333333334 -0.31091666666666673 -0.08391250000000001 -0.08262916666666667 -0.18783333333333335 -0.12395833333333334 -0.3117916666666667 -0.12395833333333334h-3.8208333333333333c-0.12395833333333334 0 -0.22785000000000002 0.04220416666666667 -0.31164583333333334 0.12658333333333335 -0.08391250000000001 0.08429166666666667 -0.12585416666666668 0.18879583333333333 -0.12585416666666668 0.31354166666666666 0 0.12462916666666668 0.041941666666666676 0.2282875 0.12585416666666668 0.31091666666666673 0.08379583333333333 0.08262916666666667 0.1876875 0.12395833333333334 0.31164583333333334 0.12395833333333334Zm0 -2.479166666666667h3.8208333333333333c0.12395833333333334 0 0.2278791666666667 -0.04220416666666667 0.3117916666666667 -0.12658333333333335 0.08379583333333333 -0.08429166666666667 0.12570833333333334 -0.18879583333333333 0.12570833333333334 -0.31354166666666666 0 -0.12462916666666668 -0.0419125 -0.2282875 -0.12570833333333334 -0.31091666666666673 -0.08391250000000001 -0.08262916666666667 -0.18783333333333335 -0.12395833333333334 -0.3117916666666667 -0.12395833333333334h-3.8208333333333333c-0.12395833333333334 0 -0.22785000000000002 0.04220416666666667 -0.31164583333333334 0.12658333333333335 -0.08391250000000001 0.08429166666666667 -0.12585416666666668 0.18879583333333333 -0.12585416666666668 0.31354166666666666 0 0.12462916666666668 0.041941666666666676 0.2282875 0.12585416666666668 0.31091666666666673 0.08379583333333333 0.08262916666666667 0.1876875 0.12395833333333334 0.31164583333333334 0.12395833333333334ZM3.2083333333333335 12.833333333333334c-0.23333333333333336 0 -0.4375 -0.08750000000000001 -0.6125 -0.2625 -0.17500000000000002 -0.17500000000000002 -0.2625 -0.3791666666666667 -0.2625 -0.6125V2.041666666666667c0 -0.23333333333333336 0.08750000000000001 -0.4375 0.2625 -0.6125 0.17500000000000002 -0.17500000000000002 0.3791666666666667 -0.2625 0.6125 -0.2625h4.9c0.12095416666666668 0 0.23625000000000004 0.024304583333333334 0.34591666666666665 0.07291666666666667 0.10966666666666668 0.04861208333333334 0.2033791666666667 0.11180458333333335 0.2811666666666667 0.18958333333333335l2.66875 2.66875c0.07778750000000001 0.07778750000000001 0.14096250000000002 0.1715 0.18958333333333335 0.2811666666666667 0.048620833333333335 0.10966666666666668 0.07291666666666667 0.2249625 0.07291666666666667 0.34591666666666665V11.958333333333334c0 0.23333333333333336 -0.08750000000000001 0.4375 -0.2625 0.6125 -0.17500000000000002 0.17500000000000002 -0.3791666666666667 0.2625 -0.6125 0.2625H3.2083333333333335Zm4.827083333333334 -8.516666666666667V2.041666666666667H3.2083333333333335v9.916666666666668h7.583333333333334V4.754166666666667h-2.31875c-0.12395833333333334 0 -0.22785000000000002 -0.041941666666666676 -0.31164583333333334 -0.12585416666666668 -0.08391250000000001 -0.08379583333333333 -0.12585416666666668 -0.1876875 -0.12585416666666668 -0.31164583333333334Z" stroke-width="0.2917"></path></svg>