<svg viewBox="-0.5 -0.5 16 16" fill="none" xmlns="http://www.w3.org/2000/svg" id="Tools--Streamline-Iconoir" height="16" width="16"><desc>Tools Streamline Icon: https://streamlinehq.com</desc><path d="m6.113062500000001 6.95925 -4.966125 4.966125c-0.5485625000000001 0.5485 -0.5485625000000001 1.4379374999999999 0 1.9864375h0c0.5485 0.548625 1.437875 0.548625 1.9864375 0l4.966125 -4.9660625000000005" stroke="#000000" stroke-linecap="round" stroke-linejoin="round" stroke-width="1"></path><path d="m11.129249999999999 9.201625 2.7238125 2.72375c0.5485625000000001 0.5485625000000001 0.5485625000000001 1.4379374999999999 0 1.9864375h0c-0.5485 0.548625 -1.4379374999999999 0.548625 -1.9864375 0l-4.3603125 -4.36025" stroke="#000000" stroke-linecap="round" stroke-linejoin="round" stroke-width="1"></path><path d="m3.7830000000000004 3.6564375 -1.4898125000000002 0.4965625 -1.4898125000000002 -2.4830625 0.9931875 -0.9931875 2.4830625 1.4898125000000002 -0.496625 1.489875Zm0 0 1.9877500000000001 1.9876874999999998" stroke="#000000" stroke-linecap="round" stroke-linejoin="round" stroke-width="1"></path><path d="M6.113062500000001 6.95925c-0.5926250000000001 -1.5120624999999999 -0.47675 -3.496125 0.7449375 -4.7178125 1.2216875 -1.2216875 3.4762500000000003 -1.4898125000000002 4.7178125 -0.7449375l-2.1355625 2.1355625 -0.1984375 2.1849374999999998 2.184875 -0.1985 2.1355625 -2.1355c0.7449375 1.2415 0.47675 3.496125 -0.744875 4.7178125 -1.2217500000000001 1.2216875 -3.20575 1.3375625 -4.7178125 0.744875" stroke="#000000" stroke-linecap="round" stroke-linejoin="round" stroke-width="1"></path></svg>