<svg viewBox="-0.5 -0.5 16 16" fill="none" xmlns="http://www.w3.org/2000/svg" id="Share-Android--Streamline-Iconoir" height="16" width="16"><desc>Share Android Streamline Icon: https://streamlinehq.com</desc><path d="M11.6023125 14.337187499999999c1.132875 0 2.0511874999999997 -0.9183125000000001 2.0511874999999997 -2.051125s-0.9183125000000001 -2.0511874999999997 -2.0511874999999997 -2.0511874999999997 -2.051125 0.9183125000000001 -2.051125 2.0511874999999997 0.91825 2.051125 2.051125 2.051125Z" stroke="#000000" stroke-linecap="round" stroke-linejoin="round" stroke-width="1"></path><path d="M11.6023125 4.765125c1.132875 0 2.0511874999999997 -0.918375 2.0511874999999997 -2.0511874999999997s-0.9183125000000001 -2.051125 -2.0511874999999997 -2.051125 -2.051125 0.9183125000000001 -2.051125 2.051125 0.91825 2.0511874999999997 2.051125 2.0511874999999997Z" stroke="#000000" stroke-linecap="round" stroke-linejoin="round" stroke-width="1"></path><path d="M3.3976875 9.551187500000001c1.1328125 0 2.051125 -0.9183125000000001 2.051125 -2.0511874999999997S4.5305 5.4488125 3.3976875 5.4488125 1.3464999999999998 6.367125 1.3464999999999998 7.5s0.918375 2.0511874999999997 2.0511874999999997 2.0511874999999997Z" stroke="#000000" stroke-linecap="round" stroke-linejoin="round" stroke-width="1"></path><path d="m9.892999999999999 3.7395625 -4.7860000000000005 2.7348749999999997" stroke="#000000" stroke-width="1"></path><path d="m5.107 8.5255625 4.7860000000000005 2.7348749999999997" stroke="#000000" stroke-width="1"></path></svg>