<svg xmlns="http://www.w3.org/2000/svg" fill="none" viewBox="-0.5 -0.5 16 16" stroke-linecap="round" stroke-linejoin="round" stroke="#000000" id="Grid--Streamline-Mynaui" height="16" width="16"><desc>Grid Streamline Icon: https://streamlinehq.com</desc><path d="M1.875 4.21875c0 -1.105 0 -1.6575000000000002 0.34375 -2C2.5606250000000004 1.875 3.113125 1.875 4.21875 1.875c1.105 0 1.6575000000000002 0 2 0.34375 0.34375 0.3425 0.34375 0.895 0.34375 2 0 1.105 0 1.6575000000000002 -0.34375 2 -0.3425 0.34375 -0.895 0.34375 -2 0.34375 -1.105 0 -1.6575000000000002 0 -2 -0.34375C1.875 5.876875 1.875 5.324375 1.875 4.21875m0 6.566875c0 -1.105 0 -1.6575000000000002 0.34375 -2 0.3425 -0.34375 0.895 -0.34375 2 -0.34375 1.105 0 1.6575000000000002 0 2 0.34375 0.34375 0.3425 0.34375 0.895 0.34375 2 0 1.105 0 1.6575000000000002 -0.34375 2 -0.3425 0.34375 -0.895 0.34375 -2 0.34375 -1.105 0 -1.6575000000000002 0 -2 -0.34375C1.875 12.44375 1.875 11.89125 1.875 10.786249999999999M8.4375 4.21875c0 -1.105 0 -1.6575000000000002 0.34375 -2 0.3425 -0.34375 0.895 -0.34375 2 -0.34375 1.105 0 1.6575000000000002 0 2 0.34375 0.34375 0.3425 0.34375 0.895 0.34375 2 0 1.105 0 1.6575000000000002 -0.34375 2 -0.3425 0.34375 -0.895 0.34375 -2 0.34375 -1.105 0 -1.6575000000000002 0 -2 -0.34375 -0.34375 -0.3425 -0.34375 -0.895 -0.34375 -2m0 6.566875c0 -1.105 0 -1.6575000000000002 0.34375 -2 0.3425 -0.34375 0.895 -0.34375 2 -0.34375 1.105 0 1.6575000000000002 0 2 0.34375 0.34375 0.3425 0.34375 0.895 0.34375 2 0 1.105 0 1.6575000000000002 -0.34375 2 -0.3425 0.34375 -0.895 0.34375 -2 0.34375 -1.105 0 -1.6575000000000002 0 -2 -0.34375 -0.34375 -0.3425 -0.34375 -0.895 -0.34375 -2" stroke-width="1"></path></svg>