<svg viewBox="-0.5 -0.5 16 16" fill="none" xmlns="http://www.w3.org/2000/svg" id="View-Grid--Streamline-Iconoir" height="16" width="16"><desc>View Grid Streamline Icon: https://streamlinehq.com</desc><path d="M9.0076875 13.832312499999999V9.459999999999999c0 -0.2498125 0.2025 -0.4523125 0.4523125 -0.4523125h4.3723125000000005c0.2498125 0 0.4523125 0.2025 0.4523125 0.4523125v4.3723125000000005c0 0.2498125 -0.2025 0.4523125 -0.4523125 0.4523125H9.459999999999999c-0.2498125 0 -0.4523125 -0.2025 -0.4523125 -0.4523125Z" stroke="#000000" stroke-width="1"></path><path d="M0.7153750000000001 13.832312499999999V9.459999999999999c0 -0.2498125 0.2025 -0.4523125 0.4523125 -0.4523125H5.540000000000001c0.2498125 0 0.4523125 0.2025 0.4523125 0.4523125v4.3723125000000005c0 0.2498125 -0.2025 0.4523125 -0.4523125 0.4523125H1.1676875c-0.2498125 0 -0.4523125 -0.2025 -0.4523125 -0.4523125Z" stroke="#000000" stroke-width="1"></path><path d="M9.0076875 5.540000000000001V1.1676875c0 -0.2498125 0.2025 -0.4523125 0.4523125 -0.4523125h4.3723125000000005c0.2498125 0 0.4523125 0.2025 0.4523125 0.4523125V5.540000000000001c0 0.2498125 -0.2025 0.4523125 -0.4523125 0.4523125H9.459999999999999c-0.2498125 0 -0.4523125 -0.2025 -0.4523125 -0.4523125Z" stroke="#000000" stroke-width="1"></path><path d="M0.7153750000000001 5.540000000000001V1.1676875c0 -0.2498125 0.2025 -0.4523125 0.4523125 -0.4523125H5.540000000000001c0.2498125 0 0.4523125 0.2025 0.4523125 0.4523125V5.540000000000001c0 0.2498125 -0.2025 0.4523125 -0.4523125 0.4523125H1.1676875c-0.2498125 0 -0.4523125 -0.2025 -0.4523125 -0.4523125Z" stroke="#000000" stroke-width="1"></path></svg>