<svg xmlns="http://www.w3.org/2000/svg" fill="none" viewBox="0 0 14 14" id="Badge--Streamline-Rounded-Material" height="14" width="14"><desc>Badge Streamline Icon: https://streamlinehq.com</desc><path fill="#000000" d="M3.3833333333333333 10.397916666666667h3.4854166666666666v-0.20416666666666666c0 -0.17500000000000002 -0.043750000000000004 -0.33054583333333337 -0.13125 -0.46666666666666673 -0.08750000000000001 -0.13612083333333333 -0.19929583333333334 -0.2284625 -0.33541666666666664 -0.27708333333333335 -0.31112083333333335 -0.10695416666666668 -0.5541666666666667 -0.17742083333333333 -0.7291666666666667 -0.21145833333333333 -0.17500000000000002 -0.0340375 -0.3451291666666667 -0.051041666666666666 -0.5104166666666667 -0.051041666666666666 -0.1847125 0 -0.3815875 0.021875000000000002 -0.5906250000000001 0.065625 -0.20903750000000001 0.043750000000000004 -0.4447916666666667 0.109375 -0.7072916666666667 0.19687500000000002 -0.14583333333333334 0.048620833333333335 -0.2625 0.14096250000000002 -0.35000000000000003 0.27708333333333335 -0.08750000000000001 0.13612083333333333 -0.13125 0.2916666666666667 -0.13125 0.46666666666666673v0.20416666666666666Zm5.264583333333334 -0.9770833333333334h1.75c0.10529166666666667 0 0.1924125 -0.03462083333333334 0.26133333333333336 -0.10383333333333333 0.06883333333333333 -0.069125 0.10325 -0.15662500000000001 0.10325 -0.2625 0 -0.1057875 -0.034416666666666665 -0.19270416666666668 -0.10325 -0.26075000000000004 -0.06892083333333333 -0.06804583333333333 -0.1560416666666667 -0.10208333333333333 -0.26133333333333336 -0.10208333333333333h-1.75c-0.10529166666666667 0 -0.1924125 0.03462083333333334 -0.26133333333333336 0.10383333333333333 -0.06883333333333333 0.069125 -0.10325 0.15662500000000001 -0.10325 0.2625 0 0.1057875 0.034416666666666665 0.19270416666666668 0.10325 0.26075000000000004 0.06892083333333333 0.06804583333333333 0.1560416666666667 0.10208333333333333 0.26133333333333336 0.10208333333333333ZM5.1625000000000005 8.691666666666668c0.21875 0 0.40468750000000003 -0.0765625 0.5578125 -0.22968750000000002 0.153125 -0.153125 0.22968750000000002 -0.33906250000000004 0.22968750000000002 -0.5578125s-0.0765625 -0.40468750000000003 -0.22968750000000002 -0.5578125c-0.153125 -0.153125 -0.33906250000000004 -0.22968750000000002 -0.5578125 -0.22968750000000002s-0.40468750000000003 0.0765625 -0.5578125 0.22968750000000002C4.4515625 7.499479166666667 4.375 7.685416666666668 4.375 7.904166666666668s0.0765625 0.40468750000000003 0.22968750000000002 0.5578125c0.153125 0.153125 0.33906250000000004 0.22968750000000002 0.5578125 0.22968750000000002Zm3.4854166666666666 -0.9187500000000001h1.75c0.10529166666666667 0 0.1924125 -0.03462083333333334 0.26133333333333336 -0.10383333333333333 0.06883333333333333 -0.069125 0.10325 -0.15662500000000001 0.10325 -0.2625 0 -0.1057875 -0.034416666666666665 -0.19270416666666668 -0.10325 -0.26075000000000004 -0.06892083333333333 -0.06804583333333333 -0.1560416666666667 -0.10208333333333333 -0.26133333333333336 -0.10208333333333333h-1.75c-0.10529166666666667 0 -0.1924125 0.03462083333333334 -0.26133333333333336 0.10383333333333333 -0.06883333333333333 0.069125 -0.10325 0.15662500000000001 -0.10325 0.2625 0 0.1057875 0.034416666666666665 0.19270416666666668 0.10325 0.26075000000000004 0.06892083333333333 0.06804583333333333 0.1560416666666667 0.10208333333333333 0.26133333333333336 0.10208333333333333ZM2.041666666666667 12.833333333333334c-0.23333333333333336 0 -0.4375 -0.08750000000000001 -0.6125 -0.2625 -0.17500000000000002 -0.17500000000000002 -0.2625 -0.3791666666666667 -0.2625 -0.6125V4.958333333333334c0 -0.23333333333333336 0.08750000000000001 -0.4375 0.2625 -0.6125 0.17500000000000002 -0.17500000000000002 0.3791666666666667 -0.2625 0.6125 -0.2625h3.6458333333333335V2.041666666666667c0 -0.23333333333333336 0.08750000000000001 -0.4375 0.2625 -0.6125 0.17500000000000002 -0.17500000000000002 0.38115 -0.2625 0.6184791666666667 -0.2625h0.8630416666666667c0.23732916666666667 0 0.4434791666666667 0.08750000000000001 0.6184791666666667 0.2625 0.17500000000000002 0.17500000000000002 0.2625 0.3791666666666667 0.2625 0.6125v2.041666666666667H11.958333333333334c0.23333333333333336 0 0.4375 0.08750000000000001 0.6125 0.2625 0.17500000000000002 0.17500000000000002 0.2625 0.3791666666666667 0.2625 0.6125v7c0 0.23333333333333336 -0.08750000000000001 0.4375 -0.2625 0.6125 -0.17500000000000002 0.17500000000000002 -0.3791666666666667 0.2625 -0.6125 0.2625H2.041666666666667Zm0 -0.875h9.916666666666668V4.958333333333334H8.3125v0.4375c0 0.2722125 -0.08750000000000001 0.4861208333333334 -0.2625 0.6416666666666667 -0.17500000000000002 0.15554583333333336 -0.38115 0.23333333333333336 -0.6184791666666667 0.23333333333333336h-0.8630416666666667c-0.23732916666666667 0 -0.4434791666666667 -0.07778750000000001 -0.6184791666666667 -0.23333333333333336 -0.17500000000000002 -0.15554583333333336 -0.2625 -0.3694541666666667 -0.2625 -0.6416666666666667V4.958333333333334H2.041666666666667v7Zm4.520833333333334 -6.5625h0.875V2.041666666666667h-0.875v3.354166666666667Z" stroke-width="0.2917"></path></svg>