<svg xmlns="http://www.w3.org/2000/svg" fill="none" viewBox="-0.5 -0.5 16 16" stroke-linecap="round" stroke-linejoin="round" stroke="#000000" id="Credit-Card--Streamline-Mynaui" height="16" width="16"><desc>Credit Card Streamline Icon: https://streamlinehq.com</desc><path d="M1.875 5.625v-0.5c0 -0.7000000000000001 0 -1.05 0.13625 -1.3175000000000001 0.12 -0.235625 0.310625 -0.42625 0.54625 -0.54625C2.8249999999999997 3.125 3.175 3.125 3.875 3.125h7.25c0.7000000000000001 0 1.05 0 1.316875 0.13625 0.235625 0.12 0.426875 0.310625 0.546875 0.54625 0.13625 0.266875 0.13625 0.616875 0.13625 1.315625V5.625M1.875 5.625h11.25M1.875 5.625v4.25c0 0.7000000000000001 0 1.05 0.13625 1.3175000000000001a1.25 1.25 0 0 0 0.54625 0.54625c0.266875 0.13625 0.616875 0.13625 1.315625 0.13625h7.25375c0.6987500000000001 0 1.048125 0 1.315 -0.13625 0.235625 -0.12 0.426875 -0.31125 0.546875 -0.54625 0.13625 -0.2675 0.13625 -0.61625 0.13625 -1.315V5.625M3.75 9.375h2.5" stroke-width="1"></path></svg>