<svg xmlns="http://www.w3.org/2000/svg" fill="none" viewBox="0 0 14 14" id="Downloading--Streamline-Rounded-Material" height="14" width="14"><desc>Downloading Streamline Icon: https://streamlinehq.com</desc><path fill="#000000" d="M5.716666666666668 12.702054166666668c-1.3319541666666668 -0.31112083333333335 -2.4232541666666667 -0.9965375000000001 -3.2739583333333333 -2.05625 -0.8506954166666667 -1.0597125 -1.2760416666666667 -2.275 -1.2760416666666667 -3.6458333333333335s0.42534625 -2.5861208333333336 1.2760416666666667 -3.6458333333333335c0.8507041666666667 -1.05972125 1.9420041666666668 -1.7402758333333335 3.2739583333333333 -2.041666666666667 0.13612083333333333 -0.02916666666666667 0.2576291666666667 0 0.36458333333333337 0.08750000000000001s0.16041666666666668 0.1993075 0.16041666666666668 0.33541666666666664c0 0.10694541666666667 -0.02916666666666667 0.1993075 -0.08750000000000001 0.27708333333333335 -0.05833333333333334 0.07777875000000001 -0.14096250000000002 0.12639083333333334 -0.24791666666666667 0.14583333333333334 -1.1375 0.25277875000000005 -2.0659625000000004 0.83125 -2.785416666666667 1.7354166666666668 -0.7194454166666667 0.9041666666666668 -1.0791666666666668 1.9395833333333337 -1.0791666666666668 3.10625s0.35972125000000005 2.2020833333333334 1.0791666666666668 3.10625c0.7194541666666667 0.9041666666666668 1.647916666666667 1.4826291666666669 2.785416666666667 1.7354166666666668 0.10695416666666668 0.019454166666666668 0.18958333333333335 0.06804583333333333 0.24791666666666667 0.14583333333333334 0.05833333333333334 0.07778750000000001 0.08750000000000001 0.1701291666666667 0.08750000000000001 0.27708333333333335 0 0.13612083333333333 -0.0534625 0.2503375 -0.16041666666666668 0.3427083333333334 -0.10695416666666668 0.09237083333333333 -0.2284625 0.12395833333333334 -0.36458333333333337 0.09479166666666668Zm2.566666666666667 -0.014583333333333335c-0.13612083333333333 0.03887916666666667 -0.2576291666666667 0.012162500000000001 -0.36458333333333337 -0.08020833333333334 -0.10695416666666668 -0.09237083333333333 -0.16041666666666668 -0.20658750000000003 -0.16041666666666668 -0.3427083333333334 0 -0.10695416666666668 0.02916666666666667 -0.19929583333333334 0.08750000000000001 -0.27708333333333335 0.05833333333333334 -0.07778750000000001 0.13612083333333333 -0.12637916666666668 0.23333333333333336 -0.14583333333333334 0.2819541666666667 -0.06804583333333333 0.5541666666666667 -0.153125 0.8166666666666667 -0.25520833333333337 0.2625 -0.10208333333333333 0.5152875 -0.23575416666666668 0.7583333333333334 -0.4010416666666667 0.07778750000000001 -0.048620833333333335 0.1652875 -0.065625 0.2625 -0.051041666666666666 0.09721250000000001 0.014583333333333335 0.17987083333333334 0.055912500000000004 0.24791666666666667 0.12395833333333334 0.10695416666666668 0.10695416666666668 0.153125 0.2260416666666667 0.13854166666666667 0.35729166666666673 -0.014583333333333335 0.13125 -0.08020833333333334 0.23575416666666668 -0.19687500000000002 0.31354166666666666 -0.2819541666666667 0.17500000000000002 -0.5760416666666667 0.3257041666666667 -0.8822916666666667 0.4520833333333334 -0.30625 0.12637916666666668 -0.6197916666666667 0.2284625 -0.940625 0.30625Zm2.975 -2.5083333333333333c-0.07778750000000001 -0.06804583333333333 -0.12395833333333334 -0.153125 -0.13854166666666667 -0.25520833333333337 -0.014583333333333335 -0.10208333333333333 0.007291666666666668 -0.19200416666666667 0.065625 -0.2697916666666667 0.15554583333333336 -0.24304583333333335 0.28679583333333336 -0.49341250000000003 0.39375000000000004 -0.7510416666666667 0.10695416666666668 -0.2576291666666667 0.19445416666666668 -0.5274208333333333 0.2625 -0.8093750000000001 0.019454166666666668 -0.09721250000000001 0.06804583333333333 -0.17500000000000002 0.14583333333333334 -0.23333333333333336 0.07778750000000001 -0.05833333333333334 0.1701291666666667 -0.08750000000000001 0.27708333333333335 -0.08750000000000001 0.13612083333333333 0 0.24791666666666667 0.0534625 0.33541666666666664 0.16041666666666668 0.08750000000000001 0.10695416666666668 0.11666666666666668 0.2284625 0.08750000000000001 0.36458333333333337 -0.07778750000000001 0.32083333333333336 -0.17987083333333334 0.634375 -0.30625 0.940625 -0.12637916666666668 0.30625 -0.27708333333333335 0.6003375000000001 -0.4520833333333334 0.8822916666666667 -0.07778750000000001 0.11666666666666668 -0.18229166666666669 0.18229166666666669 -0.31354166666666666 0.19687500000000002 -0.13125 0.014583333333333335 -0.2503375 -0.0315875 -0.35729166666666673 -0.13854166666666667Zm1.00625 -3.9375000000000004c-0.10695416666666668 0 -0.20174583333333335 -0.02916666666666667 -0.284375 -0.08750000000000001 -0.08262916666666667 -0.05833333333333334 -0.13367083333333335 -0.13612083333333333 -0.153125 -0.23333333333333336 -0.05833333333333334 -0.2819541666666667 -0.14096250000000002 -0.5517458333333334 -0.24791666666666667 -0.8093750000000001 -0.10695416666666668 -0.2576291666666667 -0.2382041666666667 -0.5079958333333334 -0.39375000000000004 -0.7510416666666667 -0.05833333333333334 -0.08750000000000001 -0.08020833333333334 -0.17987083333333334 -0.065625 -0.27708333333333335 0.014583333333333335 -0.09721250000000001 0.06075416666666667 -0.1847125 0.13854166666666667 -0.2625 0.09721250000000001 -0.09721250000000001 0.21387916666666668 -0.13854166666666667 0.35000000000000003 -0.12395833333333334 0.13612083333333333 0.014583333333333335 0.24304583333333335 0.08020833333333334 0.32083333333333336 0.19687500000000002 0.17500000000000002 0.2819541666666667 0.3257041666666667 0.5760416666666667 0.4520833333333334 0.8822916666666667 0.12637916666666668 0.30625 0.2284625 0.6197916666666667 0.30625 0.940625 0.02916666666666667 0.13612083333333333 0 0.2576291666666667 -0.08750000000000001 0.36458333333333337s-0.19929583333333334 0.16041666666666668 -0.33541666666666664 0.16041666666666668Zm-2.6104166666666666 -3.4270833333333335c-0.24304583333333335 -0.15555458333333333 -0.49583333333333335 -0.28680458333333336 -0.7583333333333334 -0.39375000000000004 -0.2625 -0.1069425 -0.5347125 -0.19444250000000002 -0.8166666666666667 -0.2625 -0.09721250000000001 -0.0194425 -0.17500000000000002 -0.06805458333333333 -0.23333333333333336 -0.14583333333333334 -0.05833333333333334 -0.07777583333333334 -0.08750000000000001 -0.1701379166666667 -0.08750000000000001 -0.27708333333333335 0 -0.13610916666666667 0.0534625 -0.24791666666666667 0.16041666666666668 -0.33541666666666664 0.10695416666666668 -0.08750000000000001 0.2284625 -0.11666666666666668 0.36458333333333337 -0.08750000000000001 0.32083333333333336 0.07777875000000001 0.634375 0.17743250000000002 0.940625 0.2989583333333333 0.30625 0.12152875 0.6003375000000001 0.27465375000000003 0.8822916666666667 0.45937500000000003 0.11666666666666668 0.07777875000000001 0.18229166666666669 0.1847241666666667 0.19687500000000002 0.32083333333333336 0.014583333333333335 0.13611208333333333 -0.026745833333333337 0.25277875000000005 -0.12395833333333334 0.35000000000000003 -0.07778750000000001 0.07777875000000001 -0.1652875 0.12395833333333334 -0.2625 0.13854166666666667 -0.09721250000000001 0.014583333333333335 -0.1847125 -0.007291666666666668 -0.2625 -0.065625Zm-2.216666666666667 5.410416666666667 1.5458333333333334 -1.5458333333333334c0.08750000000000001 -0.08750000000000001 0.18958333333333335 -0.12882916666666666 0.30625 -0.12395833333333334 0.11666666666666668 0.004870833333333334 0.21875 0.051041666666666666 0.30625 0.13854166666666667 0.08750000000000001 0.08750000000000001 0.13125 0.19200416666666667 0.13125 0.31354166666666666 0 0.1215375 -0.043750000000000004 0.2260416666666667 -0.13125 0.31354166666666666l-2.2895833333333333 2.2895833333333333c-0.08750000000000001 0.08750000000000001 -0.18958333333333335 0.13125 -0.30625 0.13125s-0.21875 -0.043750000000000004 -0.30625 -0.13125l-2.3041666666666667 -2.3041666666666667c-0.08750000000000001 -0.08750000000000001 -0.12882916666666666 -0.19200416666666667 -0.12395833333333334 -0.31354166666666666 0.004870833333333334 -0.1215375 0.051041666666666666 -0.2260416666666667 0.13854166666666667 -0.31354166666666666 0.08750000000000001 -0.08750000000000001 0.19200416666666667 -0.13125 0.31354166666666666 -0.13125 0.1215375 0 0.2260416666666667 0.043750000000000004 0.31354166666666666 0.13125l1.53125 1.5458333333333334v-3.7041666666666666c0 -0.12637916666666668 0.04132916666666667 -0.2309125 0.12395833333333334 -0.31354166666666666s0.18716250000000004 -0.12395833333333334 0.31354166666666666 -0.12395833333333334c0.12637916666666668 0 0.2309125 0.04132916666666667 0.31354166666666666 0.12395833333333334s0.12395833333333334 0.18716250000000004 0.12395833333333334 0.31354166666666666v3.7041666666666666Z" stroke-width="0.2917"></path></svg>