<svg xmlns="http://www.w3.org/2000/svg" fill="none" viewBox="-0.5 -0.5 16 16" stroke-linecap="round" stroke-linejoin="round" stroke="#000000" id="Keyboard--Streamline-Mynaui" height="16" width="16">
  <desc>
    Keyboard Streamline Icon: https://streamlinehq.com
  </desc>
  <path d="M1.25 6.875c0 -1.7674999999999998 0 -2.6518750000000004 0.549375 -3.2006250000000005C2.348125 3.125 3.2325 3.125 5 3.125h5c1.7674999999999998 0 2.6518750000000004 0 3.2006250000000005 0.549375C13.75 4.223125 13.75 5.1075 13.75 6.875v1.25c0 1.7674999999999998 0 2.6518750000000004 -0.549375 3.2006250000000005C12.651874999999999 11.875 11.7675 11.875 10 11.875H5c-1.7674999999999998 0 -2.6518750000000004 0 -3.2006250000000005 -0.549375C1.25 10.776874999999999 1.25 9.8925 1.25 8.125zm3.125 3.125h6.25M3.125 5.625h1.875m1.875 0h1.875m1.875 0h1.25M3.125 7.5h1.25m1.875 0h1.875m1.875 0h1.875" stroke-width="1"></path>
</svg>