<svg viewBox="-0.5 -0.5 16 16" fill="none" xmlns="http://www.w3.org/2000/svg" id="Link--Streamline-Iconoir" height="16" width="16"><desc>Link Streamline Icon: https://streamlinehq.com</desc><path d="M8.75 7.4985C8.75 5.9411875 7.301875 4.375 5.5357125 4.375c-0.20920625 0 -0.8988125 0.00000625 -1.071425 0.00000625C2.6890875 4.37500625 1.25 5.77345 1.25 7.4985c0 1.4865 1.06858125 2.7305 2.5 3.046125 0.229725 0.0506875 0.46878749999999997 0.077375 0.7142875 0.077375" stroke="#000000" stroke-linecap="round" stroke-linejoin="round" stroke-width="1"></path><path d="M6.25 7.4985c0 1.5573124999999999 1.448125 3.1235 3.2143125 3.1235l1.071375 0c1.7752499999999998 0 3.2143125 -1.3984375 3.2143125 -3.1235 0 -1.4865 -1.0685625 -2.730475 -2.5 -3.0461062500000002 -0.22974999999999998 -0.05065625 -0.46881249999999997 -0.0774 -0.7143125 -0.0774" stroke="#000000" stroke-linecap="round" stroke-linejoin="round" stroke-width="1"></path></svg>