<svg xmlns="http://www.w3.org/2000/svg" fill="none" viewBox="0 0 14 14" id="Link--Streamline-Rounded-Material" height="14" width="14"><desc>Link Streamline Icon: https://streamlinehq.com</desc><path fill="#000000" d="M4.083333333333334 9.916666666666668c-0.8069541666666668 0 -1.4947916666666667 -0.284375 -2.063541666666667 -0.853125C1.4510416666666666 8.494791666666668 1.1666666666666667 7.806954166666667 1.1666666666666667 7s0.284375 -1.4947916666666667 0.853125 -2.063541666666667C2.588541666666667 4.367708333333334 3.2763791666666666 4.083333333333334 4.083333333333334 4.083333333333334h2.041666666666667c0.12395833333333334 0 0.2278791666666667 0.04220416666666667 0.3117916666666667 0.12658333333333335 0.08379583333333333 0.08429166666666667 0.12570833333333334 0.18879583333333333 0.12570833333333334 0.31354166666666666 0 0.12462916666666668 -0.0419125 0.2282875 -0.12570833333333334 0.31091666666666673 -0.08391250000000001 0.08262916666666667 -0.18783333333333335 0.12395833333333334 -0.3117916666666667 0.12395833333333334h-2.041666666666667c-0.5670875 0 -1.0491833333333334 0.1981291666666667 -1.4462291666666667 0.5944166666666667C2.2401458333333335 5.9491249999999996 2.041666666666667 6.430375000000001 2.041666666666667 6.9965c0 0.5662125 0.19847916666666668 1.0486291666666667 0.5954375000000001 1.44725C3.03415 8.842370833333334 3.5162458333333335 9.041666666666668 4.083333333333334 9.041666666666668h2.041666666666667c0.12395833333333334 0 0.2278791666666667 0.04220416666666667 0.3117916666666667 0.12658333333333335 0.08379583333333333 0.08429166666666667 0.12570833333333334 0.18879583333333333 0.12570833333333334 0.31354166666666666 0 0.12462916666666668 -0.0419125 0.2282875 -0.12570833333333334 0.31091666666666673 -0.08391250000000001 0.08262916666666667 -0.18783333333333335 0.12395833333333334 -0.3117916666666667 0.12395833333333334h-2.041666666666667Zm1.09375 -2.479166666666667c-0.12395833333333334 0 -0.22785000000000002 -0.04220416666666667 -0.31164583333333334 -0.12658333333333335 -0.08391250000000001 -0.08429166666666667 -0.12585416666666668 -0.18879583333333333 -0.12585416666666668 -0.31354166666666666 0 -0.12462916666666668 0.041941666666666676 -0.2282875 0.12585416666666668 -0.31091666666666673 0.08379583333333333 -0.08262916666666667 0.1876875 -0.12395833333333334 0.31164583333333334 -0.12395833333333334h3.6458333333333335c0.12395833333333334 0 0.2278791666666667 0.04220416666666667 0.3117916666666667 0.12658333333333335 0.08379583333333333 0.08429166666666667 0.12570833333333334 0.18879583333333333 0.12570833333333334 0.31354166666666666 0 0.12462916666666668 -0.0419125 0.2282875 -0.12570833333333334 0.31091666666666673 -0.08391250000000001 0.08262916666666667 -0.18783333333333335 0.12395833333333334 -0.3117916666666667 0.12395833333333334h-3.6458333333333335ZM7.875000000000001 9.916666666666668c-0.12395833333333334 0 -0.22785000000000002 -0.04220416666666667 -0.31164583333333334 -0.12658333333333335 -0.08391250000000001 -0.08429166666666667 -0.12585416666666668 -0.18879583333333333 -0.12585416666666668 -0.31354166666666666 0 -0.12462916666666668 0.041941666666666676 -0.2282875 0.12585416666666668 -0.31091666666666673C7.647150000000001 9.082995833333333 7.751041666666667 9.041666666666668 7.875000000000001 9.041666666666668h2.041666666666667c0.5670875 0 1.0491833333333334 -0.1981291666666667 1.4462291666666667 -0.5944166666666667C11.759854166666667 8.050875000000001 11.958333333333334 7.569625 11.958333333333334 7.003500000000001c0 -0.5662125 -0.19847916666666668 -1.0486291666666667 -0.5954375000000001 -1.44725C10.965850000000001 5.157629166666667 10.483754166666667 4.958333333333334 9.916666666666668 4.958333333333334h-2.041666666666667c-0.12395833333333334 0 -0.22785000000000002 -0.04220416666666667 -0.31164583333333334 -0.12658333333333335 -0.08391250000000001 -0.08429166666666667 -0.12585416666666668 -0.18879583333333333 -0.12585416666666668 -0.31354166666666666 0 -0.12462916666666668 0.041941666666666676 -0.2282875 0.12585416666666668 -0.31091666666666673C7.647150000000001 4.1246625 7.751041666666667 4.083333333333334 7.875000000000001 4.083333333333334h2.041666666666667c0.8069541666666668 0 1.4947916666666667 0.284375 2.063541666666667 0.853125C12.548958333333333 5.505208333333334 12.833333333333334 6.193045833333334 12.833333333333334 7s-0.284375 1.4947916666666667 -0.853125 2.063541666666667C11.411458333333334 9.632291666666667 10.723620833333333 9.916666666666668 9.916666666666668 9.916666666666668h-2.041666666666667Z" stroke-width="0.2917"></path></svg>