<svg xmlns="http://www.w3.org/2000/svg" fill="none" viewBox="0 0 16 16" id="Progress-Activity--Streamline-Rounded-Material" height="16" width="16"><desc>Progress Activity Streamline Icon: https://streamlinehq.com</desc><path fill="#000000" d="M8 14.666666666666666c-0.9333333333333332 0 -1.8055666666666665 -0.17223333333333335 -2.6166666666666663 -0.5166666666666666S3.8666666666666663 13.333333333333332 3.2666666666666666 12.733333333333334c-0.6 -0.6 -1.0722233333333333 -1.3055666666666665 -1.4166666666666665 -2.1166666666666663C1.5055566666666667 9.805566666666666 1.3333333333333333 8.933333333333334 1.3333333333333333 8s0.1722233333333333 -1.8055666666666665 0.5166666666666666 -2.6166666666666663S2.6666666666666665 3.8666666666666663 3.2666666666666666 3.2666666666666666c0.6 -0.6 1.3055666666666665 -1.0722233333333333 2.1166666666666663 -1.4166666666666665C6.1944333333333335 1.5055566666666667 7.066666666666666 1.3333333333333333 8 1.3333333333333333c0.13333333333333333 0 0.25 0.049999999999999996 0.35 0.15 0.09999999999999999 0.09999999999999999 0.15 0.21666666666666667 0.15 0.35s-0.049999999999999996 0.25 -0.15 0.35c-0.09999999999999999 0.09999999999999999 -0.21666666666666667 0.15 -0.35 0.15 -1.5666666666666667 0 -2.9027666666666665 0.5527766666666667 -4.008333333333333 1.6583333333333332C2.8861099999999995 5.0972333333333335 2.333333333333333 6.433333333333334 2.333333333333333 8s0.5527766666666667 2.9027666666666665 1.6583333333333332 4.008333333333333C5.0972333333333335 13.113900000000001 6.433333333333334 13.666666666666666 8 13.666666666666666s2.9027666666666665 -0.5527666666666666 4.008333333333333 -1.6583333333333332C13.113900000000001 10.902766666666666 13.666666666666666 9.566666666666666 13.666666666666666 8c0 -0.13333333333333333 0.049999999999999996 -0.25 0.15 -0.35 0.09999999999999999 -0.09999999999999999 0.21666666666666667 -0.15 0.35 -0.15s0.25 0.049999999999999996 0.35 0.15c0.09999999999999999 0.09999999999999999 0.15 0.21666666666666667 0.15 0.35 0 0.9333333333333332 -0.17223333333333335 1.8055666666666665 -0.5166666666666666 2.6166666666666663S13.333333333333332 12.133333333333333 12.733333333333334 12.733333333333334c-0.6 0.6 -1.3055666666666665 1.0722333333333331 -2.1166666666666663 1.4166666666666665C9.805566666666666 14.494433333333333 8.933333333333334 14.666666666666666 8 14.666666666666666Z" stroke-width="0.3333"></path></svg>