<svg viewBox="-0.565 -0.565 18 18" fill="none" xmlns="http://www.w3.org/2000/svg" id="Traffic--Streamline-Solar-Ar" height="18" width="18"><desc>Traffic Streamline Icon: https://streamlinehq.com</desc><path d="M15.464166666666666 8.434999999999999c0 1.3902285833333332 -0.412260625 2.7492476666666668 -1.1846254583333333 3.9051941249999995 -0.7723648333333333 1.1559464583333334 -1.8701800833333333 2.05687475 -3.154619708333333 2.588912375 -1.2843693333333333 0.532037625 -2.697723875 0.6712151249999999 -4.061241625 0.40002987500000003 -1.3635247791666667 -0.27125554166666666 -2.6160027833333332 -0.940713375 -3.5990528291666664 -1.9237423333333332 -0.9830430166666666 -0.98309925 -1.6525078791666665 -2.2355561666666666 -1.923728275 -3.5990739166666663 -0.27122742499999997 -1.36351775 -0.13202180833333332 -2.7768722916666664 0.3999947291666666 -4.0612627125 0.5320235666666666 -1.2844185375 1.4329729458333331 -2.3822197291666667 2.588912375 -3.154598620833333C5.685745304166666 1.8180869291666666 7.044771416666666 1.4058333333333333 8.434999999999999 1.4058333333333333" stroke="#000000" stroke-linecap="round" stroke-width="1.13"></path><path d="M10.192291666666666 1.6272099083333333c2.470049166666666 0.6357529791666666 4.4146681249999995 2.5803649083333333 5.05045625 5.050428133333333" stroke="#000000" stroke-linecap="round" stroke-width="1.13"></path></svg>