<svg xmlns="http://www.w3.org/2000/svg" fill="none" viewBox="0 0 14 14" id="Reopen-Window--Streamline-Rounded-Material" height="14" width="14"><desc>Reopen Window Streamline Icon: https://streamlinehq.com</desc><path fill="#000000" d="M2.041666666666667 11.666666666666668c-0.23333333333333336 0 -0.4375 -0.08750000000000001 -0.6125 -0.2625 -0.17500000000000002 -0.17500000000000002 -0.2625 -0.3791666666666667 -0.2625 -0.6125V3.2083333333333335c0 -0.23333333333333336 0.08750000000000001 -0.4375 0.2625 -0.6125C1.6041666666666667 2.420833333333334 1.8083333333333336 2.3333333333333335 2.041666666666667 2.3333333333333335h9.916666666666668c0.23333333333333336 0 0.4375 0.08750000000000001 0.6125 0.2625 0.17500000000000002 0.17500000000000002 0.2625 0.3791666666666667 0.2625 0.6125v3.9375000000000004c0 0.12637916666666668 -0.04132916666666667 0.2309125 -0.12395833333333334 0.31354166666666666S12.522212500000002 7.583333333333334 12.395833333333334 7.583333333333334c-0.12637916666666668 0 -0.2309125 -0.04132916666666667 -0.31354166666666666 -0.12395833333333334S11.958333333333334 7.2722125 11.958333333333334 7.145833333333334v-2.7125000000000004H2.041666666666667V10.791666666666668h4.520833333333334c0.12637916666666668 0 0.2309125 0.04132916666666667 0.31354166666666666 0.12395833333333334S7 11.1027875 7 11.229166666666668c0 0.12637916666666668 -0.04132916666666667 0.2309125 -0.12395833333333334 0.31354166666666666S6.688879166666667 11.666666666666668 6.5625 11.666666666666668H2.041666666666667Zm9.041666666666668 2.3333333333333335c-0.5541666666666667 0 -1.0597125 -0.14096250000000002 -1.5166666666666668 -0.42291666666666666 -0.4569541666666667 -0.2819541666666667 -0.8117958333333334 -0.6611208333333334 -1.0645833333333334 -1.1375 -0.06804583333333333 -0.12637916666666668 -0.08262916666666667 -0.2503375 -0.043750000000000004 -0.371875 0.03887916666666667 -0.1215375 0.1215375 -0.20658750000000003 0.24791666666666667 -0.25520833333333337 0.10695416666666668 -0.03887916666666667 0.21632916666666668 -0.03887916666666667 0.328125 0s0.19200416666666667 0.11179583333333333 0.240625 0.21875c0.17500000000000002 0.33054583333333337 0.42291666666666666 0.5954958333333334 0.74375 0.7947916666666668C10.339583333333335 13.0253375 10.694454166666667 13.125 11.083333333333334 13.125c0.5638791666666667 0 1.0451291666666667 -0.19929583333333334 1.44375 -0.5979166666666667C12.925704166666666 12.128462500000001 13.125 11.647212500000002 13.125 11.083333333333334s-0.19929583333333334 -1.0451291666666667 -0.5979166666666667 -1.44375C12.128462500000001 9.2409625 11.647212500000002 9.041666666666668 11.083333333333334 9.041666666666668c-0.2722125 0 -0.5298708333333334 0.048620833333333335 -0.7729166666666667 0.14583333333333334 -0.24304583333333335 0.09721250000000001 -0.46179583333333335 0.24304583333333335 -0.65625 0.4375h0.4083333333333333c0.12637916666666668 0 0.2309125 0.04132916666666667 0.31354166666666666 0.12395833333333334S10.5 9.936120833333334 10.5 10.0625c0 0.12637916666666668 -0.04132916666666667 0.2309125 -0.12395833333333334 0.31354166666666666S10.188879166666668 10.5 10.0625 10.5h-1.4583333333333335c-0.12637916666666668 0 -0.2309125 -0.04132916666666667 -0.31354166666666666 -0.12395833333333334S8.166666666666668 10.188879166666668 8.166666666666668 10.0625v-1.4583333333333335c0 -0.12637916666666668 0.04132916666666667 -0.2309125 0.12395833333333334 -0.31354166666666666S8.477787500000002 8.166666666666668 8.604166666666668 8.166666666666668c0.12637916666666668 0 0.2309125 0.04132916666666667 0.31354166666666666 0.12395833333333334S9.041666666666668 8.477787500000002 9.041666666666668 8.604166666666668v0.39375000000000004c0.2819541666666667 -0.2625 0.5979166666666667 -0.46666666666666673 0.9479166666666667 -0.6125 0.35000000000000003 -0.14583333333333334 0.7145833333333335 -0.21875 1.09375 -0.21875 0.8069541666666668 0 1.4947916666666667 0.284375 2.063541666666667 0.853125C13.715625000000001 9.588541666666668 14 10.276379166666667 14 11.083333333333334s-0.284375 1.4947916666666667 -0.853125 2.063541666666667C12.578125 13.715625000000001 11.890287500000001 14 11.083333333333334 14Z" stroke-width="0.2917"></path></svg>