<svg xmlns="http://www.w3.org/2000/svg" fill="none" viewBox="-0.5 -0.5 16 16" stroke-linecap="round" stroke-linejoin="round" stroke="#000000" id="Ruler--Streamline-Mynaui" height="16" width="16">
  <desc>
    Ruler Streamline Icon: https://streamlinehq.com
  </desc>
  <path d="m3.69625 7.5 1.42625 1.426875m0.475 -3.32875 1.426875 1.42625M7.5 3.69625l1.426875 1.42625m-6.0875 3.23375 5.51625 -5.51625c0.533125 -0.5325 0.8 -0.7987500000000001 1.10625 -0.8987499999999999 0.270625 -0.08750000000000001 0.56125 -0.08750000000000001 0.83125 0 0.306875 0.1 0.573125 0.36624999999999996 1.105 0.8981250000000001l0.7625 0.7618750000000001c0.5325 0.5325 0.7987500000000001 0.8 0.8987499999999999 1.10625 0.08750000000000001 0.270625 0.08750000000000001 0.560625 0 0.83125 -0.1 0.30625 -0.36624999999999996 0.573125 -0.8987499999999999 1.10625l-5.51625 5.51625c-0.533125 0.5325 -0.8 0.7987500000000001 -1.10625 0.8987499999999999 -0.270625 0.08750000000000001 -0.560625 0.08750000000000001 -0.83125 0 -0.30625 -0.1 -0.57375 -0.36624999999999996 -1.10625 -0.899375l-0.7625 -0.76125c-0.53125 -0.5325 -0.7975 -0.798125 -0.8975 -1.1056249999999999a1.3450000000000002 1.3450000000000002 0 0 1 0 -0.83125c0.1 -0.30625 0.36624999999999996 -0.573125 0.8987499999999999 -1.10625" stroke-width="1"></path>
</svg>