<svg xmlns="http://www.w3.org/2000/svg" fill="none" viewBox="0 0 14 14" id="Tune--Streamline-Rounded-Material" height="14" width="14"><desc>Tune Streamline Icon: https://streamlinehq.com</desc><path fill="#000000" d="M6.661958333333334 12.25c-0.12462916666666668 0 -0.2282875 -0.041941666666666676 -0.31091666666666673 -0.12585416666666668 -0.08262916666666667 -0.08379583333333333 -0.12395833333333334 -0.1876875 -0.12395833333333334 -0.31164583333333334v-2.40625c0 -0.12395833333333334 0.04220416666666667 -0.2278791666666667 0.12658333333333335 -0.3117916666666667 0.08429166666666667 -0.08379583333333333 0.18879583333333333 -0.12570833333333334 0.31354166666666666 -0.12570833333333334 0.12462916666666668 0 0.2282875 0.0419125 0.31091666666666673 0.12570833333333334 0.08262916666666667 0.08391250000000001 0.12395833333333334 0.18783333333333335 0.12395833333333334 0.3117916666666667v0.7729166666666667H11.8125c0.12395833333333334 0 0.2278791666666667 0.04220416666666667 0.3117916666666667 0.12658333333333335 0.08379583333333333 0.08429166666666667 0.12570833333333334 0.18879583333333333 0.12570833333333334 0.31354166666666666 0 0.12462916666666668 -0.0419125 0.2282875 -0.12570833333333334 0.31091666666666673 -0.08391250000000001 0.08262916666666667 -0.18783333333333335 0.12395833333333334 -0.3117916666666667 0.12395833333333334H7.102083333333335v0.7583333333333334c0 0.12395833333333334 -0.04220416666666667 0.22785000000000002 -0.12658333333333335 0.31164583333333334 -0.08429166666666667 0.08391250000000001 -0.18879583333333333 0.12585416666666668 -0.31354166666666666 0.12585416666666668ZM2.1875 11.054166666666667c-0.12395833333333334 0 -0.22784125000000002 -0.04220416666666667 -0.31164583333333334 -0.12658333333333335C1.7919504166666669 10.843291666666667 1.75 10.7387875 1.75 10.614041666666667c0 -0.12462916666666668 0.04195041666666667 -0.2282875 0.12585416666666668 -0.31091666666666673 0.08380458333333334 -0.08262916666666667 0.1876875 -0.12395833333333334 0.31164583333333334 -0.12395833333333334h2.7270833333333333c0.12395833333333334 0 0.2278791666666667 0.04220416666666667 0.3117916666666667 0.12658333333333335 0.08379583333333333 0.08429166666666667 0.12570833333333334 0.18879583333333333 0.12570833333333334 0.31354166666666666 0 0.12462916666666668 -0.0419125 0.2282875 -0.12570833333333334 0.31091666666666673 -0.08391250000000001 0.08262916666666667 -0.18783333333333335 0.12395833333333334 -0.3117916666666667 0.12395833333333334H2.1875Zm2.724458333333333 -2.420833333333334c-0.12462916666666668 0 -0.2282875 -0.041941666666666676 -0.31091666666666673 -0.12585416666666668 -0.08262916666666667 -0.08379583333333333 -0.12395833333333334 -0.1876875 -0.12395833333333334 -0.31164583333333334v-0.7583333333333334H2.1875c-0.12395833333333334 0 -0.22784125000000002 -0.04220416666666667 -0.31164583333333334 -0.12658333333333335C1.7919504166666669 7.226625000000001 1.75 7.122120833333335 1.75 6.997375c0 -0.12462916666666668 0.04195041666666667 -0.2282875 0.12585416666666668 -0.31091666666666673 0.08380458333333334 -0.08262916666666667 0.1876875 -0.12395833333333334 0.31164583333333334 -0.12395833333333334h2.2895833333333333v-0.7875000000000001c0 -0.12395833333333334 0.04220416666666667 -0.2278791666666667 0.12658333333333335 -0.3117916666666667 0.08429166666666667 -0.08379583333333333 0.18879583333333333 -0.12570833333333334 0.31354166666666666 -0.12570833333333334 0.12462916666666668 0 0.2282875 0.0419125 0.31091666666666673 0.12570833333333334 0.08262916666666667 0.08391250000000001 0.12395833333333334 0.18783333333333335 0.12395833333333334 0.3117916666666667v2.420833333333334c0 0.12395833333333334 -0.04220416666666667 0.22785000000000002 -0.12658333333333335 0.31164583333333334 -0.08429166666666667 0.08391250000000001 -0.18879583333333333 0.12585416666666668 -0.31354166666666666 0.12585416666666668Zm1.7526250000000003 -1.1958333333333333c-0.12395833333333334 0 -0.22785000000000002 -0.04220416666666667 -0.31164583333333334 -0.12658333333333335 -0.08391250000000001 -0.08429166666666667 -0.12585416666666668 -0.18879583333333333 -0.12585416666666668 -0.31354166666666666 0 -0.12462916666666668 0.041941666666666676 -0.2282875 0.12585416666666668 -0.31091666666666673 0.08379583333333333 -0.08262916666666667 0.1876875 -0.12395833333333334 0.31164583333333334 -0.12395833333333334H11.8125c0.12395833333333334 0 0.2278791666666667 0.04220416666666667 0.3117916666666667 0.12658333333333335 0.08379583333333333 0.08429166666666667 0.12570833333333334 0.18879583333333333 0.12570833333333334 0.31354166666666666 0 0.12462916666666668 -0.0419125 0.2282875 -0.12570833333333334 0.31091666666666673 -0.08391250000000001 0.08262916666666667 -0.18783333333333335 0.12395833333333334 -0.3117916666666667 0.12395833333333334H6.664583333333334Zm2.4182083333333337 -2.40625c-0.12462916666666668 0 -0.2282875 -0.041941666666666676 -0.31091666666666673 -0.12585416666666668 -0.08262916666666667 -0.08379583333333333 -0.12395833333333334 -0.1876875 -0.12395833333333334 -0.31164583333333334V2.1875c0 -0.12395833333333334 0.04220416666666667 -0.22788791666666666 0.12658333333333335 -0.3117916666666667 0.08429166666666667 -0.08380458333333334 0.18879583333333333 -0.12570833333333334 0.31354166666666666 -0.12570833333333334 0.12462916666666668 0 0.2282875 0.041903750000000003 0.31091666666666673 0.12570833333333334 0.08262916666666667 0.08390375 0.12395833333333334 0.18783333333333335 0.12395833333333334 0.3117916666666667v0.7583333333333334h2.2895833333333333c0.12395833333333334 0 0.2278791666666667 0.04220416666666667 0.3117916666666667 0.12658333333333335 0.08379583333333333 0.08429166666666667 0.12570833333333334 0.18879583333333333 0.12570833333333334 0.31354166666666666 0 0.12462916666666668 -0.0419125 0.2282875 -0.12570833333333334 0.31091666666666673 -0.08391250000000001 0.08262916666666667 -0.18783333333333335 0.12395833333333334 -0.3117916666666667 0.12395833333333334h-2.2895833333333333v0.7729166666666667c0 0.12395833333333334 -0.04220416666666667 0.22785000000000002 -0.12658333333333335 0.31164583333333334 -0.08429166666666667 0.08391250000000001 -0.18879583333333333 0.12585416666666668 -0.31354166666666666 0.12585416666666668ZM2.1875 3.8208333333333333c-0.12395833333333334 0 -0.22784125000000002 -0.04220416666666667 -0.31164583333333334 -0.12658333333333335C1.7919504166666669 3.6099583333333336 1.75 3.505454166666667 1.75 3.380708333333333c0 -0.12462916666666668 0.04195041666666667 -0.2282875 0.12585416666666668 -0.31091666666666673 0.08380458333333334 -0.08262916666666667 0.1876875 -0.12395833333333334 0.31164583333333334 -0.12395833333333334h5.147916666666666c0.12395833333333334 0 0.2278791666666667 0.04220416666666667 0.3117916666666667 0.12658333333333335 0.08379583333333333 0.08429166666666667 0.12570833333333334 0.18879583333333333 0.12570833333333334 0.31354166666666666 0 0.12462916666666668 -0.0419125 0.2282875 -0.12570833333333334 0.31091666666666673 -0.08391250000000001 0.08262916666666667 -0.18783333333333335 0.12395833333333334 -0.3117916666666667 0.12395833333333334H2.1875Z" stroke-width="0.2917"></path></svg>