<svg viewBox="-0.5 -0.5 16 16" fill="none" xmlns="http://www.w3.org/2000/svg" id="Settings--Streamline-Iconoir" height="16" width="16"><desc>Settings Streamline Icon: https://streamlinehq.com</desc><path d="M7.5 9.551187500000001c1.132875 0 2.0511874999999997 -0.9183125000000001 2.0511874999999997 -2.0511874999999997S8.632875 5.4488125 7.5 5.4488125 5.4488125 6.367125 5.4488125 7.5 6.367125 9.551187500000001 7.5 9.551187500000001Z" stroke="#000000" stroke-linecap="round" stroke-linejoin="round" stroke-width="1"></path><path d="M12.7115625 6.402875 11.961062499999999 4.590625l1.0086875 -1.1929375 -1.3674374999999999 -1.3674374999999999 -1.1864375 1.013875 -1.85075 -0.761125 -0.42562500000000003 -1.6201875h-1.3361875l-0.4320625 1.6416875 -1.8082500000000001 0.76225 -1.1653125 -1.0365 -1.3674374999999999 1.3674374999999999 0.9936875000000001 1.2230625000000002 -0.7389999999999999 1.8169374999999999 -1.622125 0.3785625v1.3675000000000002l1.6416875 0.448125 0.7620625000000001 1.8079375 -1.0363125 1.1625 1.3674374999999999 1.3674374999999999 1.224625 -0.998 1.7816874999999999 0.7329375 0.41225 1.6325h1.3675000000000002l0.41325 -1.6318750000000002 1.8123125 -0.7505000000000001c0.3020625 0.21587499999999998 1.193 1.0149374999999998 1.193 1.0149374999999998l1.3674374999999999 -1.3674374999999999 -1.0146875 -1.1969375 0.7506875000000001 -1.8128125000000002 1.6313749999999998 -0.4244375 0.0000625 -1.351875 -1.6255625 -0.413375Z" stroke="#000000" stroke-linecap="round" stroke-linejoin="round" stroke-width="1"></path></svg>