<svg xmlns="http://www.w3.org/2000/svg" fill="none" viewBox="-0.5 -0.5 16 16" stroke-linecap="round" stroke-linejoin="round" stroke="#000000" id="Cog--Streamline-Mynaui" height="16" width="16"><desc>Cog Streamline Icon: https://streamlinehq.com</desc><path stroke-miterlimit="1" d="M6.31875 2.4375a0.625 0.625 0 0 1 0.621875 -0.5625h1.11875a0.625 0.625 0 0 1 0.621875 0.5625l0.020625 0.208125a4.970625 4.970625 0 0 1 1.380625 0.571875l0.161875 -0.1325a0.625 0.625 0 0 1 0.8375 0.041875l0.79125 0.79125a0.625 0.625 0 0 1 0.041875 0.8375l-0.1325 0.1625c0.255625 0.42250000000000004 0.44999999999999996 0.8868750000000001 0.571875 1.3800000000000001l0.20750000000000002 0.020625a0.625 0.625 0 0 1 0.563125 0.621875v1.11875a0.625 0.625 0 0 1 -0.5625 0.621875l-0.208125 0.020625a4.969374999999999 4.969374999999999 0 0 1 -0.571875 1.380625l0.1325 0.161875a0.625 0.625 0 0 1 -0.041875 0.8375l-0.79125 0.79125a0.625 0.625 0 0 1 -0.8375 0.041875l-0.1625 -0.1325a4.966875 4.966875 0 0 1 -1.3800000000000001 0.571875l-0.020625 0.20750000000000002a0.625 0.625 0 0 1 -0.621875 0.563125h-1.11875a0.625 0.625 0 0 1 -0.621875 -0.5625l-0.020625 -0.208125a4.96875 4.96875 0 0 1 -1.380625 -0.571875l-0.161875 0.1325a0.625 0.625 0 0 1 -0.8375 -0.041875L3.126875 11.08125a0.625 0.625 0 0 1 -0.041875 -0.8375l0.1325 -0.1625a4.970625 4.970625 0 0 1 -0.571875 -1.3800000000000001L2.4375 8.68125a0.625 0.625 0 0 1 -0.5625 -0.621875v-1.11875a0.625 0.625 0 0 1 0.5625 -0.621875l0.208125 -0.020625a4.970625 4.970625 0 0 1 0.571875 -1.380625l-0.1325 -0.161875a0.625 0.625 0 0 1 0.041875 -0.8375L3.9187499999999997 3.126875a0.625 0.625 0 0 1 0.8375 -0.041875l0.1625 0.1325a4.966875 4.966875 0 0 1 1.3800000000000001 -0.571875z" stroke-width="1"></path><path stroke-miterlimit="1" d="M5.9375 7.5a1.5625 1.5625 0 1 1 3.125 0 1.5625 1.5625 0 1 1 -3.125 0" stroke-width="1"></path></svg>