<svg viewBox="-0.5 -0.5 16 16" fill="none" xmlns="http://www.w3.org/2000/svg" id="Shield-Search--Streamline-Iconoir" height="16" width="16"><desc>Shield Search Streamline Icon: https://streamlinehq.com</desc><path d="m8.5524375 8.3599375 1.0524375 1.0524375" stroke="#000000" stroke-linecap="round" stroke-linejoin="round" stroke-width="1"></path><path d="M5.395124999999999 6.956687499999999c0 0.9686875 0.7853125 1.7540625 1.7540625 1.7540625 0.48524999999999996 0 0.9244375 -0.19699999999999998 1.2419375000000001 -0.5154375 0.3164375 -0.31725000000000003 0.512125 -0.7550625 0.512125 -1.238625 0 -0.96875 -0.7853125 -1.754125 -1.7540625 -1.754125s-1.7540625 0.7853749999999999 -1.7540625 1.754125Z" stroke="#000000" stroke-linecap="round" stroke-linejoin="round" stroke-width="1"></path><path d="M2.588625 11.8680625 1.2768125 2.6855c-0.051875000000000004 -0.3629375 0.184875 -0.7016875 0.5428125 -0.7811875l5.3759375 -1.1946875c0.2005625 -0.044562500000000005 0.408375 -0.044562500000000005 0.6088749999999999 0l5.3759999999999994 1.1946875c0.357875 0.0795625 0.594625 0.41825 0.54275 0.7811875l-1.3117500000000002 9.1825625c-0.049625 0.34731249999999997 -0.3508125 2.4556875 -4.9114375 2.4556875s-4.8618125 -2.108375 -4.911375 -2.4556875Z" stroke="#000000" stroke-linecap="round" stroke-linejoin="round" stroke-width="1"></path></svg>