<svg xmlns="http://www.w3.org/2000/svg" fill="none" viewBox="0 0 14 14" id="Power-Settings-New--Streamline-Rounded-Material" height="14" width="14"><desc>Power Settings New Streamline Icon: https://streamlinehq.com</desc><path fill="#000000" d="M6.5625 7.174941666666666v-5.045833333333334c0 -0.12638791666666668 0.04132916666666667 -0.23090083333333336 0.12395833333333334 -0.31354166666666666 0.08262916666666667 -0.08263791666666669 0.18716250000000004 -0.12395833333333334 0.31354166666666666 -0.12395833333333334 0.12637916666666668 0 0.2309125 0.041320416666666665 0.31354166666666666 0.12395833333333334 0.08262916666666667 0.08264083333333333 0.12395833333333334 0.18715375 0.12395833333333334 0.31354166666666666v5.045833333333334c0 0.12637916666666668 -0.04132916666666667 0.2309125 -0.12395833333333334 0.31354166666666666s-0.18716250000000004 0.12395833333333334 -0.31354166666666666 0.12395833333333334c-0.12637916666666668 0 -0.2309125 -0.04132916666666667 -0.31354166666666666 -0.12395833333333334s-0.12395833333333334 -0.18716250000000004 -0.12395833333333334 -0.31354166666666666Zm0.4375 5.104166666666667c-0.7194541666666667 0 -1.3975791666666666 -0.13854166666666667 -2.034375 -0.415625 -0.6367958333333333 -0.27708333333333335 -1.1934125000000002 -0.6538291666666667 -1.6697916666666666 -1.1302083333333335 -0.4763879166666667 -0.4763791666666667 -0.853125 -1.0329958333333333 -1.1302083333333335 -1.6697916666666666C1.8885416666666668 8.4266875 1.75 7.748562500000001 1.75 7.029108333333333c0 -0.7000000000000001 0.13367958333333335 -1.3611208333333333 0.4010416666666667 -1.9833333333333334s0.6489583333333334 -1.1812500000000001 1.1447916666666667 -1.6770833333333335c0.08750000000000001 -0.08750000000000001 0.19687500000000002 -0.13367083333333335 0.328125 -0.13854166666666667 0.13125 -0.004870833333333334 0.240625 0.036458333333333336 0.328125 0.12395833333333334 0.08750000000000001 0.08750000000000001 0.12395833333333334 0.19200416666666667 0.109375 0.31354166666666666 -0.014583333333333335 0.1215375 -0.065625 0.2260416666666667 -0.153125 0.31354166666666666 -0.4083333333333333 0.4083333333333333 -0.7242958333333334 0.8725791666666667 -0.9479166666666667 1.3927083333333334 -0.22361208333333335 0.5201291666666668 -0.33541666666666664 1.071875 -0.33541666666666664 1.6552083333333334 0 1.2152875 0.4253375 2.248254166666667 1.2760416666666667 3.0989583333333335 0.8507041666666667 0.8507041666666667 1.8836708333333336 1.2760416666666667 3.0989583333333335 1.2760416666666667s2.248254166666667 -0.4253375 3.0989583333333335 -1.2760416666666667C10.9496625 9.2773625 11.375 8.244395833333334 11.375 7.029108333333333c0 -0.5930458333333334 -0.11179583333333333 -1.1520833333333333 -0.33541666666666664 -1.6770833333333335 -0.22362083333333335 -0.525 -0.5347125 -0.9867958333333334 -0.9333333333333335 -1.3854166666666667 -0.08750000000000001 -0.08750000000000001 -0.13612083333333333 -0.19200416666666667 -0.14583333333333334 -0.31354166666666666 -0.009712500000000002 -0.1215375 0.02916666666666667 -0.22117083333333334 0.11666666666666668 -0.2989583333333333 0.09721250000000001 -0.09721250000000001 0.21145833333333333 -0.13854166666666667 0.3427083333333334 -0.12395833333333334 0.13125 0.014583333333333335 0.24549583333333336 0.07049583333333334 0.3427083333333334 0.16770833333333332 0.4763791666666667 0.4861208333333334 0.8434125000000001 1.0402875 1.1010416666666667 1.6625 0.2576291666666667 0.6222125000000001 0.38645833333333335 1.2784625 0.38645833333333335 1.9687500000000002 0 0.7194541666666667 -0.13854166666666667 1.3975791666666666 -0.415625 2.034375 -0.27708333333333335 0.6367958333333333 -0.6513791666666666 1.1934125000000002 -1.1229166666666668 1.6697916666666666 -0.47153750000000005 0.4763791666666667 -1.0257041666666669 0.853125 -1.6625 1.1302083333333335 -0.6367958333333333 0.27708333333333335 -1.319791666666667 0.415625 -2.0489583333333337 0.415625Z" stroke-width="0.2917"></path></svg>