<svg viewBox="-0.5 -0.5 16 16" fill="none" xmlns="http://www.w3.org/2000/svg" id="Shop--Streamline-Iconoir" height="16" width="16"><desc>Shop Streamline Icon: https://streamlinehq.com</desc><path d="M1.875 6.25v5.625c0 0.690375 0.55964375 1.25 1.25 1.25h8.75c0.690375 0 1.25 -0.559625 1.25 -1.25v-5.625" stroke="#000000" stroke-width="1"></path><path d="M9.2708125 13.125v-3.75c0 -0.690375 -0.559625 -1.25 -1.25 -1.25h-1.25c-0.69035 0 -1.24999375 0.559625 -1.24999375 1.25v3.75" stroke="#000000" stroke-miterlimit="16" stroke-width="1"></path><path d="m13.6364375 5.852612499999999 -1.0587499999999999 -3.7056312499999997C12.5316875 1.98599375 12.384562500000001 1.875 12.217125 1.875H9.6875l0.2970625 3.5648562499999996c0.00975 0.1166625 0.07312500000000001 0.22204374999999998 0.1736875 0.2819875 0.2433125 0.14501875 0.72 0.413775 1.09175 0.52815625 0.6348750000000001 0.1953125 1.563 0.124875 2.0915624999999998 0.059875 0.21981250000000002 -0.027000000000000003 0.35575 -0.24431250000000002 0.294875 -0.4572625Z" stroke="#000000" stroke-width="1"></path><path d="M8.75 6.25c0.3546875 -0.1091375 0.8049375000000001 -0.35881875 1.0568125 -0.50745625 0.11993749999999999 -0.07075625 0.18593749999999998 -0.2044 0.174375 -0.34314375L9.6875 1.875h-4.375l-0.2937 3.5244c-0.0115625 0.13874375 0.05446875 0.2723875 0.1743625 0.34314375C5.44504375 5.891181250000001 5.895312499999999 6.140862499999999 6.25 6.25c0.9331250000000001 0.28712499999999996 1.566875 0.28712499999999996 2.5 0Z" stroke="#000000" stroke-width="1"></path><path d="M2.42229375 2.14698125 1.3635375 5.852612499999999c-0.06084375 0.21295000000000003 0.0750875 0.4302625 0.2949 0.4572625 0.5285375 0.065 1.4567125 0.1354375 2.0915624999999998 -0.059875 0.37173125 -0.11438125 0.8484437499999999 -0.3831375 1.0917375 -0.52815625 0.10055625 -0.05994375 0.16396875000000002 -0.165325 0.17369374999999998 -0.2819875L5.3125 1.875H2.7828625000000002c-0.16743125 0 -0.314575 0.11099375 -0.36056875 0.27198125Z" stroke="#000000" stroke-width="1"></path></svg>