<svg xmlns="http://www.w3.org/2000/svg" fill="none" viewBox="-0.5 -0.5 16 16" stroke-linecap="round" stroke-linejoin="round" stroke="#000000" id="Store--Streamline-Mynaui" height="16" width="16"><desc>Store Streamline Icon: https://streamlinehq.com</desc><path d="M12.497499999999999 6.6381250000000005V11.875a1.25 1.25 0 0 1 -1.25 1.25H3.7524999999999995a1.25 1.25 0 0 1 -1.2493750000000001 -1.25v-5.2368749999999995M4.68875 5.46875l0.3125 -3.59375m-0.3125 3.59375c0 1.8137500000000002 2.8112500000000002 1.8137500000000002 2.8112500000000002 0m-2.8112500000000002 0c0 1.985 -3.2218750000000003 1.575 -2.770625 -0.155l0.653125 -2.5043749999999996A1.25 1.25 0 0 1 3.7800000000000002 1.875h7.4399999999999995a1.25 1.25 0 0 1 1.20875 0.9343750000000001l0.653125 2.5043749999999996c0.45125 1.730625 -2.770625 2.14 -2.770625 0.155M7.5 5.46875V1.875m0 3.59375c0 1.8137500000000002 2.8112500000000002 1.8137500000000002 2.8112500000000002 0m0 0 -0.3125 -3.59375" stroke-width="1"></path></svg>