<svg xmlns="http://www.w3.org/2000/svg" fill="none" viewBox="-0.5 -0.5 16 16" stroke-linecap="round" stroke-linejoin="round" stroke="#000000" id="Support--Streamline-Mynaui" height="16" width="16">
  <desc>
    Support Streamline Icon: https://streamlinehq.com
  </desc>
  <path d="M1.875 7.5a5.625 5.625 0 1 0 11.25 0 5.625 5.625 0 1 0 -11.25 0" stroke-width="1"></path>
  <path d="m11.25 3.75 -2.203125 2.203125M3.75 11.25l2.203125 -2.203125M3.75 3.75l2.203125 2.203125M11.25 11.25l-2.203125 -2.203125m-3.09375 0c-0.8425 -0.8425 -0.8425 -2.250625 0 -3.09375m0 3.09375c0.8425 0.8425 2.250625 0.8425 3.09375 0m0 0c0.8425 -0.8425 0.8425 -2.250625 0 -3.09375m0 0c-0.8425 -0.8425 -2.250625 -0.8425 -3.09375 0" stroke-width="1"></path>
</svg>