<svg xmlns="http://www.w3.org/2000/svg" fill="none" viewBox="0 0 16 16" id="Terminal--Streamline-Rounded-Material" height="16" width="16"><desc>Terminal Streamline Icon: https://streamlinehq.com</desc><path fill="#000000" d="M2.333333333333333 13.333333333333332c-0.26666666666666666 0 -0.5 -0.09999999999999999 -0.7 -0.3 -0.19999999999999998 -0.19999999999999998 -0.3 -0.43333333333333335 -0.3 -0.7V3.6666666666666665c0 -0.26666666666666666 0.09999999999999999 -0.5 0.3 -0.7C1.8333333333333333 2.7666666666666666 2.0666666666666664 2.6666666666666665 2.333333333333333 2.6666666666666665h11.333333333333332c0.26666666666666666 0 0.5 0.09999999999999999 0.7 0.3 0.19999999999999998 0.19999999999999998 0.3 0.43333333333333335 0.3 0.7v8.666666666666666c0 0.26666666666666666 -0.09999999999999999 0.5 -0.3 0.7 -0.19999999999999998 0.19999999999999998 -0.43333333333333335 0.3 -0.7 0.3H2.333333333333333Zm0 -1h11.333333333333332V5.066666666666666H2.333333333333333V12.333333333333332Zm3.6833333333333336 -3.6333333333333333 -1.3833333333333333 -1.3833333333333333c-0.09999999999999999 -0.09999999999999999 -0.14723333333333333 -0.21666666666666667 -0.14166666666666666 -0.35 0.005566666666666666 -0.13333333333333333 0.05833333333333333 -0.25 0.15833333333333333 -0.35 0.09999999999999999 -0.09999999999999999 0.21666666666666667 -0.15 0.35 -0.15s0.25 0.049999999999999996 0.35 0.15l1.7333333333333334 1.7333333333333334c0.09999999999999999 0.09999999999999999 0.15 0.21666666666666667 0.15 0.35s-0.049999999999999996 0.25 -0.15 0.35l-1.7333333333333334 1.7333333333333334c-0.09999999999999999 0.09999999999999999 -0.21666666666666667 0.15 -0.35 0.15s-0.25 -0.049999999999999996 -0.35 -0.15c-0.09999999999999999 -0.09999999999999999 -0.15 -0.21666666666666667 -0.15 -0.35s0.049999999999999996 -0.25 0.15 -0.35l1.3666666666666665 -1.3833333333333333ZM8.666666666666666 11.2c-0.14443333333333333 0 -0.26389999999999997 -0.04723333333333333 -0.3583333333333333 -0.14166666666666666s-0.14166666666666666 -0.2139 -0.14166666666666666 -0.3583333333333333c0 -0.14443333333333333 0.04723333333333333 -0.26389999999999997 0.14166666666666666 -0.3583333333333333S8.522233333333332 10.2 8.666666666666666 10.2h2.6666666666666665c0.14443333333333333 0 0.26389999999999997 0.04723333333333333 0.3583333333333333 0.14166666666666666s0.14166666666666666 0.2139 0.14166666666666666 0.3583333333333333c0 0.14443333333333333 -0.04723333333333333 0.26389999999999997 -0.14166666666666666 0.3583333333333333s-0.2139 0.14166666666666666 -0.3583333333333333 0.14166666666666666h-2.6666666666666665Z" stroke-width="0.3333"></path></svg>