<svg xmlns="http://www.w3.org/2000/svg" fill="none" viewBox="0 0 16 16" id="Delete--Streamline-Rounded-Material" height="16" width="16"><desc>Delete Streamline Icon: https://streamlinehq.com</desc><path fill="#000000" d="M4.35 14c-0.27499999999999997 0 -0.5104 -0.09793333333333333 -0.7061666666666666 -0.2938333333333333 -0.1959 -0.19576666666666667 -0.2938333333333333 -0.4311666666666667 -0.2938333333333333 -0.7061666666666666V3.5H3.1666666666666665c-0.14166666666666666 0 -0.26039 -0.04823333333333333 -0.35616666666666663 -0.14466666666666667C2.7146099999999995 3.2589999999999995 2.6666666666666665 3.1395566666666666 2.6666666666666665 2.997c0 -0.1424433333333333 0.04794333333333334 -0.26088999999999996 0.1438333333333333 -0.35533333333333333C2.906276666666667 2.547223333333333 3.0249999999999995 2.5 3.1666666666666665 2.5h2.6333333333333333c0 -0.1444433333333333 0.047933333333333335 -0.26388999999999996 0.1438333333333333 -0.3583333333333333C6.0396 2.047223333333333 6.158333333333333 2 6.299999999999999 2h3.3999999999999995c0.14166666666666666 0 0.2604333333333333 0.047889999999999995 0.3563333333333333 0.14366666666666666 0.09576666666666667 0.09588999999999999 0.14366666666666666 0.21466666666666667 0.14366666666666666 0.3563333333333333h2.6333333333333333c0.14166666666666666 0 0.2604333333333333 0.048223333333333326 0.3563333333333333 0.14466666666666667 0.09576666666666667 0.09633333333333333 0.14366666666666666 0.21577666666666664 0.14366666666666666 0.3583333333333333 0 0.1424433333333333 -0.0479 0.26088999999999996 -0.14366666666666666 0.35533333333333333 -0.0959 0.09443333333333333 -0.21466666666666667 0.14166666666666666 -0.3563333333333333 0.14166666666666666h-0.18333333333333335V13c0 0.27499999999999997 -0.0979 0.5104 -0.29366666666666663 0.7061666666666666 -0.1959 0.1959 -0.43133333333333335 0.2938333333333333 -0.7063333333333334 0.2938333333333333h-7.299999999999999Zm7.299999999999999 -10.5h-7.299999999999999V13h7.299999999999999V3.5ZM6.619666666666667 11.566666666666666c0.14243333333333333 0 0.26089999999999997 -0.047933333333333335 0.35533333333333333 -0.1438333333333333 0.09443333333333333 -0.09576666666666667 0.14166666666666666 -0.21449999999999997 0.14166666666666666 -0.35616666666666663V5.416666666666666c0 -0.14166666666666666 -0.04823333333333333 -0.2604333333333333 -0.14466666666666667 -0.3563333333333333 -0.09633333333333333 -0.09576666666666667 -0.21576666666666666 -0.14366666666666666 -0.3583333333333333 -0.14366666666666666 -0.14243333333333333 0 -0.26089999999999997 0.0479 -0.35533333333333333 0.14366666666666666 -0.09443333333333333 0.0959 -0.14166666666666666 0.21466666666666667 -0.14166666666666666 0.3563333333333333V11.066666666666666c0 0.14166666666666666 0.04823333333333333 0.26039999999999996 0.14466666666666667 0.35616666666666663 0.09633333333333333 0.0959 0.21576666666666666 0.1438333333333333 0.3583333333333333 0.1438333333333333Zm2.7666666666666666 0c0.14243333333333333 0 0.26089999999999997 -0.047933333333333335 0.35533333333333333 -0.1438333333333333 0.09443333333333333 -0.09576666666666667 0.14166666666666666 -0.21449999999999997 0.14166666666666666 -0.35616666666666663V5.416666666666666c0 -0.14166666666666666 -0.04823333333333333 -0.2604333333333333 -0.14466666666666667 -0.3563333333333333 -0.09633333333333333 -0.09576666666666667 -0.21576666666666666 -0.14366666666666666 -0.3583333333333333 -0.14366666666666666 -0.14243333333333333 0 -0.26089999999999997 0.0479 -0.35533333333333333 0.14366666666666666 -0.09443333333333333 0.0959 -0.14166666666666666 0.21466666666666667 -0.14166666666666666 0.3563333333333333V11.066666666666666c0 0.14166666666666666 0.04823333333333333 0.26039999999999996 0.14466666666666667 0.35616666666666663 0.09633333333333333 0.0959 0.21576666666666666 0.1438333333333333 0.3583333333333333 0.1438333333333333Z" stroke-width="0.3333"></path></svg>