<svg xmlns="http://www.w3.org/2000/svg" fill="none" viewBox="-0.5 -0.5 16 16" stroke-linecap="round" stroke-linejoin="round" stroke="#000000" id="Trash--Streamline-Mynaui" height="16" width="16"><desc>Trash Streamline Icon: https://streamlinehq.com</desc><path d="m11.25 5.625 -0.525 5.248749999999999c-0.079375 0.7956249999999999 -0.11875 1.193125 -0.3 1.4937500000000001a1.5625 1.5625 0 0 1 -0.671875 0.608125C9.436250000000001 13.125 9.037500000000001 13.125 8.2375 13.125h-1.4749999999999999c-0.799375 0 -1.19875 0 -1.515625 -0.15a1.5625 1.5625 0 0 1 -0.6725000000000001 -0.608125c-0.18 -0.3 -0.21999999999999997 -0.6975 -0.3 -1.4931249999999998L3.75 5.625m4.6875 4.0625v-3.125m-1.875 3.125v-3.125m-3.75 -2.5h2.8843750000000004m0 0 0.24125000000000002 -1.6700000000000002c0.07 -0.30374999999999996 0.3225 -0.5175 0.6125 -0.5175h1.89875c0.29000000000000004 0 0.541875 0.21375000000000002 0.6125 0.5175l0.24125000000000002 1.6700000000000002m-3.6062499999999997 0h3.6062499999999997m0 0H12.1875" stroke-width="1"></path></svg>