<svg xmlns="http://www.w3.org/2000/svg" fill="none" viewBox="-0.5 -0.5 16 16" stroke-linecap="round" stroke-linejoin="round" stroke="#000000" id="Folder-Slash--Streamline-Mynaui" height="16" width="16">
  <desc>
    Folder Slash Streamline Icon: https://streamlinehq.com
  </desc>
  <path d="m1.875 13.125 0.735625 -0.735625M13.125 1.875l-2.5 2.5m0 0h1.25a1.25 1.25 0 0 1 1.25 1.25v5.625a1.25 1.25 0 0 1 -1.25 1.25H3.125c-0.18312499999999998 0 -0.3575 -0.039375 -0.514375 -0.110625M10.625 4.375 2.6106249999999998 12.389375000000001M1.875 10.3125V3.75a1.25 1.25 0 0 1 1.25 -1.25h1.0906250000000002a1.25 1.25 0 0 1 0.82625 0.3125l1.42 1.25a1.25 1.25 0 0 0 0.82625 0.3125H8.125" stroke-width="1"></path>
</svg>