<svg viewBox="-0.565 -0.565 18 18" fill="none" xmlns="http://www.w3.org/2000/svg" id="Download-Square--Streamline-Solar-Ar" height="18" width="18"><desc>Download Square Streamline Icon: https://streamlinehq.com</desc><path d="m8.434999999999999 4.920416666666666 0 4.920416666666666m0 0 2.1087499999999997 -2.1087499999999997m-2.1087499999999997 2.1087499999999997 -2.1087499999999997 -2.1087499999999997" stroke="#000000" stroke-linecap="round" stroke-linejoin="round" stroke-width="1.13"></path><path d="M11.246666666666666 11.949583333333333H5.623333333333333" stroke="#000000" stroke-linecap="round" stroke-width="1.13"></path><path d="M1.4058333333333333 8.434999999999999c0 -3.3135843125 0 -4.970372954166666 1.0294003708333332 -5.999766295833333C3.4646270458333333 1.4058333333333333 5.1214156875 1.4058333333333333 8.434999999999999 1.4058333333333333c3.3135491666666668 0 4.970394041666666 0 5.999745208333334 1.0294003708333332C15.464166666666666 3.4646270458333333 15.464166666666666 5.1214156875 15.464166666666666 8.434999999999999c0 3.3135491666666668 0 4.970394041666666 -1.0294214583333332 5.999745208333334C13.405394041666668 15.464166666666666 11.748549166666665 15.464166666666666 8.434999999999999 15.464166666666666c-3.3135843125 0 -4.970372954166666 0 -5.999766295833333 -1.0294214583333332C1.4058333333333333 13.405394041666668 1.4058333333333333 11.748549166666665 1.4058333333333333 8.434999999999999Z" stroke="#000000" stroke-width="1.13"></path></svg>