<svg xmlns="http://www.w3.org/2000/svg" fill="none" viewBox="-0.5 -0.5 16 16" stroke-linecap="round" stroke-linejoin="round" stroke="#000000" id="Package--Streamline-Mynaui" height="16" width="16"><desc>Package Streamline Icon: https://streamlinehq.com</desc><path d="m7.5 13.125 5.081875 -2.63c0.1975 -0.10250000000000001 0.29625 -0.153125 0.368125 -0.22875a0.625 0.625 0 0 0 0.14125000000000001 -0.233125c0.03375 -0.099375 0.03375 -0.21000000000000002 0.03375 -0.4325V4.708125M7.5 13.125l-5.081875 -2.63c-0.1975 -0.10250000000000001 -0.29625 -0.153125 -0.368125 -0.22875a0.630625 0.630625 0 0 1 -0.14125000000000001 -0.233125C1.875 9.93375 1.875 9.8225 1.875 9.599375V4.708125M7.5 13.125v-5.664375000000001m5.625 -2.7525 -5.625 2.7525m5.625 -2.7525 -2.8125 -1.45625M1.875 4.70875l5.168125 -2.6750000000000003c0.1675 -0.08625000000000001 0.250625 -0.13 0.33875 -0.14687499999999998a0.62125 0.62125 0 0 1 0.23625000000000002 0c0.08750000000000001 0.016875 0.17125 0.060625 0.338125 0.14687499999999998l2.35625 1.21875M1.875 4.70875l2.8125 1.37625m2.8125 1.37625L4.6875 6.084375m0 0 5.625 -2.8318749999999997m-5.625 2.8318749999999997v1.37625" stroke-width="1"></path></svg>