<svg xmlns="http://www.w3.org/2000/svg" fill="none" viewBox="0 0 16 16" id="Deployed-Code-Update--Streamline-Rounded-Material" height="16" width="16"><desc>Deployed Code Update Streamline Icon: https://streamlinehq.com</desc><path fill="#000000" d="m8 2.2833666666666668 -4.449999999999999 2.5666666666666664 4.449999999999999 2.583333333333333 4.433333333333334 -2.583333333333333 -4.433333333333334 -2.5666666666666664Zm-6 8.549999999999999v-5.666666666666666c0 -0.17776666666666666 0.043776666666666665 -0.34326666666666666 0.13133333333333333 -0.4965 0.08744333333333333 -0.15309999999999999 0.21033333333333332 -0.27649999999999997 0.3686666666666667 -0.37016666666666664l5 -2.8833333333333333c0.08889999999999999 -0.05555666666666667 0.17193333333333333 -0.09166666666666667 0.24916666666666668 -0.10833333333333334 0.07723333333333332 -0.016666666666666666 0.16056666666666666 -0.024999999999999998 0.25 -0.024999999999999998s0.1758333333333333 0.008333333333333333 0.25916666666666666 0.024999999999999998c0.08333333333333333 0.016666666666666666 0.1639 0.052776666666666666 0.24166666666666664 0.10833333333333334l5 2.8833333333333333c0.15833333333333333 0.09366666666666668 0.28126666666666666 0.21706666666666666 0.36883333333333335 0.37016666666666664 0.08743333333333332 0.15323333333333333 0.13116666666666665 0.3187333333333333 0.13116666666666665 0.4965v3c0 0.14166666666666666 -0.04823333333333333 0.26039999999999996 -0.14466666666666667 0.35616666666666663 -0.09633333333333333 0.0959 -0.21576666666666666 0.1438333333333333 -0.3583333333333333 0.1438333333333333 -0.14243333333333333 0 -0.26089999999999997 -0.047933333333333335 -0.35533333333333333 -0.1438333333333333 -0.09443333333333333 -0.09576666666666667 -0.14166666666666666 -0.21449999999999997 -0.14166666666666666 -0.35616666666666663v-2.5l-4.4833333333333325 2.6166666666666663c-0.15556666666666666 0.08889999999999999 -0.3222333333333333 0.1361 -0.5 0.14166666666666666 -0.17776666666666666 0.005566666666666666 -0.34443333333333337 -0.03609999999999999 -0.5 -0.125L3 5.683366666666666v5.1499999999999995l4.75 2.733333333333333c0.075 0.04243333333333333 0.13543333333333332 0.10193333333333333 0.18133333333333335 0.1785 0.045766666666666664 0.07643333333333333 0.06866666666666665 0.1614 0.06866666666666665 0.2548333333333333 0 0.18889999999999998 -0.08333333333333333 0.3305666666666667 -0.25 0.42499999999999993 -0.16666666666666666 0.09443333333333333 -0.3333333333333333 0.09723333333333334 -0.5 0.008333333333333333l-4.75 -2.733333333333333c-0.15833333333333333 -0.09366666666666668 -0.2812233333333333 -0.21706666666666666 -0.3686666666666667 -0.37016666666666664 -0.08755666666666667 -0.15323333333333333 -0.13133333333333333 -0.3187333333333333 -0.13133333333333333 -0.4965Zm10.166666666666666 5.166666666666666c-0.8666666666666667 0 -1.6111 -0.30776666666666663 -2.2333333333333334 -0.9233333333333333 -0.6222333333333333 -0.6155666666666666 -0.9333333333333332 -1.3599999999999999 -0.9333333333333332 -2.2333333333333334s0.3111 -1.6210999999999998 0.9333333333333332 -2.243333333333333c0.6222333333333333 -0.6222333333333333 1.3666666666666665 -0.9333333333333332 2.2333333333333334 -0.9333333333333332 0.8666666666666667 0 1.6111 0.3104 2.2333333333333334 0.9311666666666666 0.6222333333333333 0.6206666666666667 0.9333333333333332 1.3714 0.9333333333333332 2.2521666666666667 0 0.8714333333333333 -0.3111 1.6143333333333332 -0.9333333333333332 2.2286666666666664 -0.6222333333333333 0.6142333333333333 -1.3666666666666665 0.9213333333333332 -2.2333333333333334 0.9213333333333332Zm-0.08333333333333333 -2.216666666666667 -1.1166666666666667 -1.1166666666666667c-0.05556666666666666 -0.05556666666666666 -0.11109999999999999 -0.08333333333333333 -0.16666666666666666 -0.08333333333333333 -0.05556666666666666 0 -0.11109999999999999 0.027766666666666665 -0.16666666666666666 0.08333333333333333 -0.05556666666666666 0.05556666666666666 -0.08333333333333333 0.1139 -0.08333333333333333 0.175 0 0.061099999999999995 0.027766666666666665 0.11943333333333334 0.08333333333333333 0.175l1.3499999999999999 1.3666666666666665c0.05556666666666666 0.05556666666666666 0.11183333333333334 0.09443333333333333 0.1688333333333333 0.11666666666666665 0.0571 0.02223333333333333 0.11823333333333333 0.03333333333333333 0.18333333333333335 0.03333333333333333 0.06523333333333334 0 0.1256 -0.0111 0.18116666666666664 -0.03333333333333333 0.05556666666666666 -0.02223333333333333 0.11109999999999999 -0.061099999999999995 0.16666666666666666 -0.11666666666666665l1.3666666666666665 -1.3666666666666665c0.05556666666666666 -0.05556666666666666 0.08333333333333333 -0.1139 0.08333333333333333 -0.175 0 -0.061099999999999995 -0.027766666666666665 -0.11943333333333334 -0.08333333333333333 -0.175 -0.05556666666666666 -0.05556666666666666 -0.1139 -0.08333333333333333 -0.175 -0.08333333333333333 -0.061099999999999995 0 -0.11943333333333334 0.027766666666666665 -0.175 0.08333333333333333l-1.1166666666666667 1.1166666666666667v-2.5999999999999996c0 -0.06666666666666667 -0.024999999999999998 -0.125 -0.075 -0.175 -0.049999999999999996 -0.049999999999999996 -0.10833333333333334 -0.075 -0.175 -0.075s-0.125 0.024999999999999998 -0.175 0.075c-0.049999999999999996 0.049999999999999996 -0.075 0.10833333333333334 -0.075 0.175v2.5999999999999996Z" stroke-width="0.3333"></path></svg>