<svg xmlns="http://www.w3.org/2000/svg" fill="none" viewBox="0 0 16 16" id="Warning--Streamline-Rounded-Material" height="16" width="16"><desc>Warning Streamline Icon: https://streamlinehq.com</desc><path fill="#000000" d="M1.5336466666666664 14c-0.09999999999999999 0 -0.18694333333333335 -0.022933333333333333 -0.2608333333333333 -0.06883333333333333 -0.07389 -0.045766666666666664 -0.13139 -0.10616666666666666 -0.1725 -0.18116666666666664 -0.04633333333333334 -0.07333333333333333 -0.07177666666666666 -0.15276666666666666 -0.07633333333333334 -0.2383333333333333 -0.004666666666666666 -0.08556666666666665 0.020776666666666666 -0.17276666666666665 0.07633333333333334 -0.26166666666666666L7.566966666666667 2.083333333333333c0.05556666666666666 -0.08889 0.11946666666666667 -0.15277666666666667 0.19166666666666665 -0.19166666666666665 0.07223333333333333 -0.038889999999999994 0.1528 -0.05833333333333333 0.24166666666666664 -0.05833333333333333 0.08889999999999999 0 0.16946666666666665 0.019443333333333333 0.24166666666666664 0.05833333333333333 0.07223333333333333 0.038889999999999994 0.13613333333333333 0.10277666666666666 0.19166666666666665 0.19166666666666665l6.466666666666666 11.166666666666666c0.05556666666666666 0.08889999999999999 0.08099999999999999 0.17609999999999998 0.07633333333333334 0.26166666666666666 -0.004533333333333333 0.08556666666666665 -0.03 0.16499999999999998 -0.07633333333333334 0.2383333333333333 -0.0411 0.075 -0.0986 0.1354 -0.1725 0.18116666666666664 -0.07386666666666666 0.045899999999999996 -0.16083333333333333 0.06883333333333333 -0.2608333333333333 0.06883333333333333H1.5336466666666664Zm0.8666666666666667 -1H13.600299999999999l-5.6 -9.666666666666666L2.400313333333333 13Zm5.669653333333333 -0.95c0.14246666666666666 0 0.26089999999999997 -0.04823333333333333 0.35533333333333333 -0.14466666666666667 0.09446666666666666 -0.09633333333333333 0.14166666666666666 -0.21576666666666666 0.14166666666666666 -0.3583333333333333 0 -0.14243333333333333 -0.0482 -0.26089999999999997 -0.14466666666666667 -0.35533333333333333 -0.09633333333333333 -0.09443333333333333 -0.21576666666666666 -0.14166666666666666 -0.3583333333333333 -0.14166666666666666 -0.14243333333333333 0 -0.26086666666666664 0.04823333333333333 -0.35533333333333333 0.14466666666666667 -0.09443333333333333 0.09633333333333333 -0.14166666666666666 0.21576666666666666 -0.14166666666666666 0.3583333333333333 0 0.14243333333333333 0.04823333333333333 0.26089999999999997 0.14466666666666667 0.35533333333333333 0.09633333333333333 0.09443333333333333 0.2158 0.14166666666666666 0.3583333333333333 0.14166666666666666Zm0 -1.8499999999999999c0.14246666666666666 0 0.26089999999999997 -0.047933333333333335 0.35533333333333333 -0.1438333333333333 0.09446666666666666 -0.09576666666666667 0.14166666666666666 -0.21449999999999997 0.14166666666666666 -0.35616666666666663v-2.733333333333333c0 -0.14166666666666666 -0.0482 -0.2604333333333333 -0.14466666666666667 -0.3563333333333333 -0.09633333333333333 -0.09576666666666667 -0.21576666666666666 -0.14366666666666666 -0.3583333333333333 -0.14366666666666666 -0.14243333333333333 0 -0.26086666666666664 0.0479 -0.35533333333333333 0.14366666666666666 -0.09443333333333333 0.0959 -0.14166666666666666 0.21466666666666667 -0.14166666666666666 0.3563333333333333v2.733333333333333c0 0.14166666666666666 0.04823333333333333 0.26039999999999996 0.14466666666666667 0.35616666666666663 0.09633333333333333 0.0959 0.2158 0.1438333333333333 0.3583333333333333 0.1438333333333333Z" stroke-width="0.3333"></path></svg>